<?xml version="1.0" encoding="utf-8"?>
<!-- Generator: Adobe Illustrator 28.1.0, SVG Export Plug-In . SVG Version: 6.00 Build 0)  -->
<svg version="1.1" id="Layer_1" xmlns="http://www.w3.org/2000/svg" xmlns:xlink="http://www.w3.org/1999/xlink" x="0px" y="0px"
	 viewBox="0 0 158 45" style="enable-background:new 0 0 158 45;" xml:space="preserve">
<style type="text/css">
	.st0{fill:url(#SVGID_1_);}
</style>
<linearGradient id="SVGID_1_" gradientUnits="userSpaceOnUse" x1="8.7314" y1="-181.7416" x2="100.2185" y2="-161.9371" gradientTransform="matrix(1 0 0 -1 0 -144)">
	<stop  offset="0" style="stop-color:#C5B185"/>
	<stop  offset="0.88" style="stop-color:#7D6C50"/>
</linearGradient>
<path class="st0" d="M63.2,0c0.4,0.1,0.8,0.3,1.1,0.6C64.6,0.8,65,1,65.4,1.1c0.4,0.1,0.8,0.1,1.3,0c0.4-0.1,0.9-0.2,1.3-0.1
	c0.3,0,0.6,0.2,0.8,0.4c0.3,0.2,0.5,0.5,0.7,0.8c0.3,0.4,0.8,0.6,1.2,0.9c0.4,0.2,0.9,0.4,1.3,0.7c0.4,0.2,0.8,0.6,1,1
	c0.2,0.3,0.5,0.5,0.8,0.8c0.3,0.2,0.7,0.5,1,0.7c0.3,0.2,0.5,0.5,0.7,0.7c0.2,0.3,0.2,0.7,0,1.1c-0.2,0.3-0.4,0.6-0.6,0.9
	c-0.2,0.2-0.4,0.4-0.5,0.7c0,0,0,0.1,0,0.1c0,0,0.1,0,0.1,0c0.1-0.1,0.3-0.2,0.4-0.3c0,0,0.1,0,0.1-0.1c0.5-0.2,1-0.4,1.6-0.3
	c0.3,0,0.6,0.1,0.8,0.3c0.4,0.4,0.9,0.7,1.3,1.2c0.1,0.2,0.3,0.4,0.4,0.6c0.2,0.4,0.3,0.8,0.3,1.3c0,0.3,0.1,0.6,0.2,0.9
	c0.1,0.4,0.2,0.8,0.5,1.1c0.2,0.3,0.2,0.6,0.3,0.9c0.1,0.4,0,0.7,0,1.1c0,0.1,0,0.2,0,0.3c0,0.5,0.2,0.9,0.5,1.3
	c0.2,0.3,0.4,0.6,0.5,0.9c0.2,0.4,0.2,0.8,0.1,1.1c-0.1,0.2-0.1,0.5-0.3,0.6c-0.1,0.1-0.3,0.3-0.4,0.4c-0.1,0.1-0.1,0.2-0.2,0.3
	c-0.1,0.1,0,0.2,0,0.3c0.1,0.3,0.1,0.4-0.1,0.6c-0.1,0.1-0.2,0.2-0.3,0.4c-0.1,0.1-0.1,0.2-0.1,0.3c0,0,0,0.1,0.1,0.2
	c0.2,0.1,0.3,0.2,0.5,0.3c0.5,0.3,0.8,0.6,0.8,1.2c0,0.4,0,0.7,0,1.1c0,0.4-0.2,0.7-0.4,1c-0.2,0.4-0.5,0.8-0.6,1.2
	c-0.1,0.3-0.1,0.6-0.1,0.8c0.1,0.7-0.1,1.4-0.6,1.9c-0.2,0.3-0.5,0.6-0.7,0.8c-0.3,0.4-0.5,0.8-0.5,1.3c0,0.4,0,0.7-0.1,1.1
	c0,0.2-0.1,0.4-0.2,0.6c-0.1,0.2-0.3,0.4-0.4,0.6c-0.2,0.3-0.3,0.5-0.4,0.8c-0.2,0.5-0.5,1-0.7,1.4c-0.3,0.5-0.6,1-0.9,1.6
	c-0.3,0.4-0.6,0.9-0.9,1.2c-0.2,0.2-0.5,0.4-0.8,0.5c-0.3,0.1-0.5,0.1-0.8,0.2c-0.2,0.1-0.3,0.2-0.4,0.3c-0.3,0.2-0.5,0.5-0.7,0.7
	c-0.2,0.2-0.5,0.3-0.9,0.3c-0.4,0-0.7-0.2-1.1-0.3c-0.4-0.1-0.8-0.3-1.1-0.5c-0.1-0.1-0.2-0.1-0.3-0.2c0,0-0.1,0-0.2-0.1
	c0,0.1,0,0.1-0.1,0.2c0,0.2,0,0.3,0,0.5c-0.1,0.5-0.3,1-0.6,1.4s-0.7,0.8-1.1,1c-0.2,0.1-0.5,0.3-0.7,0.4c-0.3,0.1-0.6,0.2-0.9,0.2
	c-0.7,0-1.4,0-2.1,0c-0.5,0-0.9,0-1.3,0.2c-0.2,0.1-0.5,0.1-0.7,0.1c-0.5,0.1-1,0-1.5,0c-0.5-0.1-1.1-0.1-1.6-0.2
	c-0.4-0.1-0.9-0.2-1.3-0.3c-0.3-0.1-0.5-0.2-0.8-0.3c-0.4-0.1-0.8-0.3-1.2-0.4c-0.2-0.1-0.5-0.2-0.7-0.2c-0.3-0.1-0.6-0.2-0.9-0.3
	c-0.3-0.1-0.7-0.1-1-0.2c-0.3,0-0.5-0.1-0.8-0.1c-0.3-0.1-0.7-0.1-1-0.1c-0.2,0-0.3-0.1-0.5-0.2c-0.3-0.1-0.5-0.3-0.7-0.4
	c-0.3-0.2-0.4-0.4-0.3-0.8c0,0,0-0.1,0-0.1c0-0.3,0.2-0.6,0.3-0.9c0.1-0.1,0-0.3,0-0.4c-0.1-0.2-0.1-0.4,0-0.6
	c0.1-0.3,0.3-0.5,0.3-0.8c0-0.1,0-0.1,0-0.2c-0.1,0-0.1,0.1-0.2,0.1c-0.2,0.3-0.4,0.5-0.5,0.8c-0.2,0.3-0.5,0.6-0.7,0.9
	c-0.2,0.2-0.2,0.3-0.5,0.1c-0.1-0.1-0.2-0.2-0.4-0.3c-0.1-0.1-0.2-0.2-0.3-0.3c-0.1,0-0.1-0.1-0.2-0.1c-0.3,0-0.6,0-1,0
	c-0.3,0-0.6,0-0.9,0c-0.2,0-0.2-0.2-0.3-0.3c-0.2-0.3-0.3-0.5-0.5-0.8c-0.3-0.4-0.5-0.7-0.8-1c-0.2-0.3-0.5-0.6-0.7-0.9
	c-0.2-0.2-0.3-0.5-0.3-0.8c0-0.1,0-0.3-0.1-0.4c0-0.2-0.1-0.3-0.2-0.4c-0.1-0.1-0.2-0.2-0.3-0.3c-0.2-0.2-0.2-0.5-0.1-0.8
	c0.1-0.4,0.4-0.7,0.6-1.1c0.1-0.2,0.3-0.4,0.4-0.6c0,0,0.1-0.1,0.1-0.1c0-0.1,0-0.1,0-0.2c0-0.1-0.1-0.1-0.2-0.1
	c-0.4,0.1-0.7,0.3-1.1,0.5c-0.3,0.1-0.5,0.2-0.8,0c-0.2-0.1-0.3-0.2-0.3-0.3c-0.1-0.2-0.1-0.4-0.2-0.6c-0.1-0.2-0.1-0.5-0.4-0.6
	c-0.1-0.1-0.2-0.2-0.2-0.4c0-0.1-0.1-0.3-0.1-0.4c-0.1-0.5-0.1-1-0.2-1.6c-0.1-0.6-0.1-1.2-0.1-1.7c0-0.3-0.1-0.6-0.2-0.8
	c0,0-0.1-0.1-0.1-0.1c-0.1,0-0.2-0.1-0.1-0.3c0-0.1,0-0.2,0-0.4c0-0.2-0.1-0.3-0.3-0.4c-0.2,0-0.3-0.2-0.3-0.4c0-0.5,0-1.1,0-1.6
	c0-0.3,0.1-0.5,0.2-0.8c0.1-0.3,0.3-0.5,0.4-0.8c0.1-0.2,0.1-0.4,0.1-0.5c0.1-0.5,0-1,0-1.5c0-0.3,0.1-0.6,0.1-0.9
	c0-0.4,0.1-0.8,0.2-1.1c0.1-0.3,0.2-0.6,0.3-0.8c0.1-0.3,0.3-0.6,0.4-0.8c0.1-0.2,0.2-0.3,0.3-0.5c0.2-0.3,0.2-0.6,0.3-1
	c0-0.3,0-0.6,0-0.8c0-0.4,0.1-0.7,0.3-1c0.3-0.4,0.5-0.7,0.8-1.1c0.2-0.2,0.3-0.5,0.5-0.8c0.2-0.3,0.4-0.6,0.8-0.8
	c0.2-0.1,0.3-0.1,0.5-0.1C43,9.2,43.5,9.2,44,9.3c0.4,0,0.8-0.2,0.8-0.6c0-0.1,0-0.3-0.1-0.5c-0.1-0.4-0.2-0.8-0.1-1.2
	c0-0.4,0.2-0.8,0.4-1.1c0.4-0.6,0.9-1,1.4-1.4c0.4-0.3,0.8-0.6,1.2-0.9c0.2-0.2,0.4-0.4,0.6-0.6c0.2-0.2,0.5-0.4,0.8-0.5
	c0.1,0,0.2,0,0.3,0c0.4,0,0.8-0.1,1.2-0.3C50.7,2,51,1.7,51.3,1.5c0.3-0.2,0.7-0.5,1-0.6c0.3-0.1,0.6-0.1,0.9-0.2
	c0.7-0.1,1.4-0.2,2.1-0.2c0.7-0.1,1.4-0.2,2.1-0.2c0.4,0,0.7,0.1,0.9,0.5c0.1,0.2,0.2,0.3,0.3,0.4c0.1,0.1,0.2,0.1,0.3-0.1
	c0.1-0.3,0.3-0.4,0.5-0.6c0.3-0.2,0.6-0.3,1-0.3c0.4,0,0.9,0,1.3-0.1c0.2,0,0.5-0.1,0.7-0.1C62.7,0,63,0,63.2,0L63.2,0z M59.5,8
	C59.5,8,59.5,8,59.5,8c-0.2,0-0.3,0-0.5,0c-0.2,0-0.4,0-0.5,0c-0.3,0.1-0.5,0.1-0.8,0.1c-0.1,0-0.2,0-0.2,0
	c-0.1,0.1-0.3,0.1-0.4,0.1c-0.1,0-0.2,0-0.2,0.1c-0.1,0-0.2,0.1-0.2,0.1c-0.1,0-0.3,0.1-0.4,0.1c-0.1,0-0.1,0.1-0.2,0.1
	c-0.1,0-0.2,0-0.3,0.1c-0.1,0-0.2,0.1-0.3,0.1c-0.1,0-0.2,0-0.3,0.1c0,0-0.1,0-0.1,0c-0.1,0-0.1,0-0.2,0C54.5,9,54.3,9.1,54,9.2
	c-0.1,0-0.2,0.1-0.3,0.1c-0.2,0.1-0.3,0.1-0.5,0.2c0,0,0,0,0,0c-0.1,0-0.2,0.1-0.2,0.1c0,0-0.1,0-0.1,0c-0.1,0.1-0.3,0.2-0.4,0.2
	c-0.3,0.2-0.6,0.3-0.9,0.5c-0.3,0.2-0.5,0.3-0.7,0.5c-0.1,0.1-0.2,0.1-0.3,0.2c-0.3,0.3-0.5,0.6-0.7,0.9c-0.2,0.2-0.3,0.5-0.5,0.7
	c-0.2,0.3-0.4,0.6-0.7,0.9c-0.2,0.3-0.5,0.6-0.7,0.9c-0.2,0.2-0.3,0.5-0.4,0.7c-0.2,0.3-0.3,0.6-0.5,0.9c-0.2,0.3-0.3,0.6-0.4,0.9
	c-0.1,0.1-0.1,0.3-0.2,0.4c-0.1,0.2-0.1,0.4-0.2,0.5c0,0,0,0,0,0c-0.1,0.2-0.1,0.4-0.2,0.6c-0.1,0.1-0.1,0.2-0.1,0.3
	c-0.1,0.2-0.1,0.4-0.2,0.6c0,0.1,0,0.3-0.1,0.4c0,0,0,0.1,0,0.1c-0.1,0.3-0.1,0.5-0.2,0.8c0,0,0,0.1,0,0.1c0,0.1-0.1,0.2-0.1,0.3
	c0,0.2,0,0.3-0.1,0.5c0,0,0,0.1,0,0.1c0,0.2,0,0.3,0,0.5c0,0.4,0,0.8,0,1.2c0,0.6-0.1,1.2,0,1.9c0,0.2,0,0.4,0.1,0.5
	c0.1,0.2,0.2,0.5,0.2,0.7c0,0.1,0,0.2,0.1,0.3c0.1,0.2,0.2,0.4,0.2,0.7c0,0.1,0,0.1,0.1,0.2c0.1,0.2,0.2,0.4,0.3,0.6
	c0.2,0.4,0.3,0.7,0.5,1.1c0.2,0.4,0.4,0.8,0.6,1.2c0.2,0.3,0.4,0.6,0.5,0.9c0.3,0.4,0.5,0.9,0.9,1.3c0.2,0.3,0.5,0.5,0.7,0.8
	c0.3,0.2,0.6,0.5,1,0.7c0.1,0.1,0.2,0.1,0.3,0.2c0.2,0.1,0.3,0.1,0.5,0.2c0.2,0.1,0.5,0.2,0.7,0.3c0.2,0.1,0.4,0.1,0.5,0.2
	c0.3,0.1,0.5,0.3,0.7,0.4c0.2,0.1,0.4,0.2,0.5,0.3c0.3,0.2,0.6,0.4,1,0.5c0,0,0,0,0,0c0.1,0,0.2,0.1,0.3,0.1c0,0,0.1,0,0.2,0
	c0.2,0.2,0.6,0.1,0.8,0.3c0,0,0.1,0,0.1,0c0.1,0,0.3,0,0.4,0.1c0.1,0,0.2,0.1,0.3,0.1c0.2,0,0.4,0.1,0.6,0.1c0,0,0,0,0,0
	c0.1,0.2,0.4,0.1,0.6,0.3c0,0,0,0,0.1,0c0.1,0,0.2,0.1,0.3,0.1c0.1,0,0.2,0.1,0.3,0.1c0.1,0,0.3,0,0.4,0c0.7,0,1.5,0,2.2-0.1
	c0.4-0.1,0.8-0.1,1.2-0.1c0.2,0,0.3,0,0.5-0.1c0,0,0.1,0,0.2,0c0.1,0,0.1,0,0.2,0c0.2-0.1,0.4-0.2,0.6-0.2c0,0,0.1,0,0.1,0
	c0.1,0,0.1,0,0.2-0.1c0.2-0.1,0.3-0.2,0.5-0.2c0.1,0,0.2-0.1,0.3-0.1c0.2-0.1,0.4-0.2,0.6-0.3c0.1-0.1,0.3-0.1,0.4-0.2
	c0.3-0.2,0.6-0.4,1-0.6c0.2-0.1,0.3-0.2,0.5-0.4c0.3-0.2,0.5-0.4,0.8-0.6c0.2-0.2,0.5-0.4,0.7-0.6c0.2-0.2,0.4-0.4,0.6-0.6
	c0.3-0.3,0.6-0.7,0.9-1c0.3-0.4,0.6-0.7,1-1.1c0.3-0.3,0.7-0.6,1-1c0.2-0.2,0.3-0.5,0.4-0.7c0.1-0.1,0.1-0.3,0.2-0.4
	c0.1-0.1,0.1-0.3,0.2-0.4c0.1-0.2,0.2-0.4,0.3-0.6c0.1-0.2,0.1-0.3,0.2-0.5c0.1-0.2,0.2-0.4,0.2-0.6c0,0,0,0,0,0
	c0.1-0.2,0.2-0.5,0.2-0.7c0-0.2,0-0.3,0.1-0.5c0-0.3,0.1-0.6,0.1-0.9c0-0.2,0.1-0.3,0.1-0.5c0-0.2,0.1-0.3,0.1-0.5
	c0-0.4,0-0.8,0-1.2c0-0.1,0-0.3,0-0.4c-0.1-0.3-0.1-0.5-0.1-0.8c0-0.1,0-0.3-0.1-0.4c0-0.1-0.1-0.3-0.1-0.4c0-0.3,0-0.6,0-0.9
	c0-0.3-0.1-0.6-0.1-0.9c0-0.1,0-0.2,0-0.4c0-0.1,0-0.2,0-0.3c0-0.3-0.1-0.6-0.1-0.8c0-0.1-0.1-0.3-0.1-0.4c0-0.2-0.1-0.3-0.1-0.5
	c-0.1-0.2-0.2-0.5-0.3-0.7c-0.1-0.3-0.3-0.6-0.5-0.9c-0.3-0.5-0.7-0.9-1.1-1.4c-0.4-0.4-0.7-0.8-1.1-1.1c-0.3-0.3-0.6-0.5-0.8-0.8
	c-0.5-0.6-1.1-1.2-1.8-1.6c-0.1-0.1-0.2-0.2-0.3-0.2c-0.2-0.1-0.4-0.2-0.6-0.3C66.6,9,66.4,9,66.2,8.9c-0.2-0.1-0.4-0.2-0.6-0.2
	c-0.1,0-0.3,0-0.4-0.1c0,0-0.1,0-0.1,0c-0.1,0-0.3,0-0.4-0.1c-0.1-0.1-0.2-0.1-0.4-0.1c-0.2,0-0.3,0-0.5-0.1c-0.1,0-0.3-0.1-0.4-0.1
	c-0.8,0-1.7-0.1-2.5-0.1C60.5,8,60,8,59.5,8L59.5,8z M58.2,5.2C58.2,5.2,58.2,5.2,58.2,5.2c-0.1,0-0.2,0-0.2,0
	c-0.2,0-0.4,0.1-0.6,0.1c-0.1,0-0.2,0.1-0.3,0.1c-0.2,0-0.5,0-0.7,0.1c-0.2,0.1-0.5,0.1-0.7,0.1c0,0-0.1,0-0.1,0
	c-0.2,0.1-0.3,0.1-0.5,0.1c-0.1,0-0.2,0-0.4,0.1c-0.1,0-0.2,0.1-0.2,0.1c-0.3,0-0.5,0.1-0.7,0.2c-0.3,0.1-0.5,0.3-0.8,0.5
	c-0.2,0.1-0.4,0.2-0.6,0.2c-0.3,0.1-0.6,0.2-0.8,0.4c-0.2,0.2-0.4,0.4-0.6,0.5C50.6,7.8,50.4,8,50.1,8c0,0-0.1,0-0.1,0
	c-0.1,0-0.2,0.1-0.2,0.1c0,0-0.1,0-0.1,0c-0.1,0.1-0.3,0.2-0.4,0.3C49,8.6,48.8,8.8,48.6,9c-0.1,0.2-0.2,0.3-0.3,0.5
	C48.2,9.7,48.1,9.8,48,10c-0.1,0.2-0.2,0.5-0.3,0.7c-0.1,0.2-0.2,0.4-0.4,0.6c-0.3,0.4-0.7,0.8-1.1,1.1c-0.4,0.3-0.7,0.6-1,1
	c-0.3,0.3-0.5,0.7-0.7,1.1c-0.1,0.1-0.1,0.2-0.2,0.3c-0.1,0.2-0.1,0.3-0.2,0.5c0,0,0,0,0,0.1c-0.1,0.2-0.2,0.3-0.2,0.5c0,0,0,0,0,0
	c0,0.1,0,0.2-0.1,0.3c0,0,0,0.1,0,0.1c-0.1,0.2-0.1,0.4-0.2,0.6c0,0,0,0,0,0c0,0.1-0.1,0.1-0.1,0.2c0,0.2-0.2,0.4-0.2,0.6
	c0,0,0,0,0,0c0,0.1-0.1,0.2-0.1,0.3c0,0.1,0,0.2-0.1,0.2c0,0.1-0.1,0.2-0.1,0.3c0,0.1,0,0.2-0.1,0.3c0,0.1-0.1,0.2-0.1,0.3
	c0,0.2-0.1,0.3-0.1,0.5c0,0.1-0.1,0.2-0.1,0.3c0,0.2,0,0.5-0.1,0.7c0,0,0,0.1,0,0.1c0,0.2,0,0.5-0.1,0.7c0,0.2-0.1,0.4-0.1,0.6
	c0,0.2,0,0.4,0,0.6c0,0.2-0.1,0.4-0.1,0.6c0,0.5,0,1,0,1.5c0,0.1,0,0.1,0,0.2c0,0.1,0.1,0.2,0.1,0.3c0.1,0.2,0.1,0.4,0.2,0.6
	c0.1,0.3,0.2,0.5,0.3,0.8c0.1,0.3,0.1,0.5,0.2,0.8c0,0.3,0.1,0.6,0.1,0.9c0,0.1,0.1,0.2,0.1,0.4c0,0.4,0.1,0.7,0.4,1
	c0.1,0.1,0.2,0.2,0.4,0.1c0.2-0.1,0.4-0.1,0.6-0.2c0.1,0,0.2-0.1,0.2-0.2c0-0.2,0-0.3-0.1-0.4c-0.1-0.1-0.1-0.2-0.1-0.4
	c0-0.1,0-0.1,0-0.2c0-0.1-0.1-0.2-0.1-0.3c0-0.1,0-0.2-0.1-0.3c0-0.1,0-0.1-0.1-0.2c0-0.1,0-0.3-0.1-0.4c0-0.1-0.1-0.2-0.1-0.3
	c0-0.2,0-0.3-0.1-0.5c0-0.1-0.1-0.3-0.1-0.4c0-0.1,0-0.3,0-0.4c-0.1-0.4-0.1-0.8-0.1-1.2c0-0.7,0-1.4,0-2.1c0-0.2,0-0.4,0-0.6
	c0.1-0.2,0.1-0.4,0.1-0.6c0-0.2,0-0.3,0.1-0.5c0,0,0,0,0,0c0-0.2,0.1-0.5,0.1-0.7c0.1-0.2,0-0.4,0.2-0.6c0,0,0,0,0,0
	c0.1-0.2,0.1-0.5,0.2-0.7c0,0,0,0,0,0c0.1-0.2,0.2-0.4,0.3-0.6c0.1-0.2,0.1-0.4,0.2-0.5c0-0.1,0.1-0.2,0.1-0.3
	c0.1-0.2,0.2-0.3,0.3-0.5c0.1-0.3,0.3-0.5,0.4-0.8c0.2-0.3,0.4-0.7,0.6-1c0.2-0.3,0.4-0.5,0.6-0.8c0.3-0.3,0.5-0.6,0.8-0.9
	c0.2-0.3,0.5-0.6,0.7-0.9c0.1-0.2,0.2-0.3,0.3-0.5c0.1-0.1,0.1-0.3,0.2-0.4c0.1-0.2,0.2-0.4,0.3-0.6c0.2-0.3,0.5-0.6,0.8-0.8
	c0.2-0.2,0.5-0.3,0.7-0.5c0.2-0.1,0.4-0.3,0.6-0.4c0.1-0.1,0.2-0.1,0.3-0.2c0.2-0.1,0.3-0.1,0.5-0.2c0.2-0.1,0.4-0.2,0.6-0.3
	c0.1-0.1,0.2-0.2,0.4-0.2c0,0,0,0,0,0c0.1,0,0.2-0.1,0.3-0.1c0.1-0.1,0.3-0.1,0.4-0.2c0.1,0,0.1-0.1,0.2-0.1c0.2,0,0.4-0.2,0.7-0.2
	c0,0,0,0,0,0c0.2-0.1,0.5-0.2,0.8-0.3c0.2,0,0.4-0.1,0.6-0.1c0.2-0.1,0.5-0.1,0.7-0.2c0.1-0.1,0.3,0,0.5-0.1c0.2,0,0.5-0.1,0.7-0.1
	c0.2,0,0.5,0,0.7-0.1c0.1,0,0.3-0.1,0.4-0.1c0.6,0,1.2,0,1.7,0c0.2,0,0.3,0,0.5,0c0.4,0,0.7,0.1,1.1,0.1c0.3,0,0.7,0.1,1,0.1
	c0.3,0.1,0.5,0,0.8,0.1c0.2,0.1,0.4,0.1,0.7,0.2c0.2,0.1,0.4,0.1,0.6,0.2c0.2,0.1,0.4,0.1,0.5,0.2c0.1,0,0.1,0,0.2,0
	c0,0,0.1,0,0.1,0c0.2,0.1,0.4,0.2,0.6,0.3c0.2,0.1,0.4,0.1,0.6,0.2c0.1,0.1,0.3,0.1,0.4,0.2c0.2,0.1,0.3,0.1,0.5,0.2
	c0.3,0.2,0.6,0.4,0.9,0.6c0.3,0.2,0.6,0.4,0.9,0.7c0.2,0.3,0.5,0.5,0.7,0.8c0.2,0.2,0.3,0.4,0.5,0.6c0.2,0.2,0.4,0.4,0.6,0.6
	c0.1,0.1,0.2,0.1,0.3,0c0,0,0.1-0.1,0.1-0.1c0.1-0.1,0.1-0.2,0-0.3c-0.1-0.1-0.2-0.2-0.2-0.3c0,0,0,0-0.1-0.1c0-0.1-0.1-0.1-0.1-0.2
	c0-0.1,0-0.2,0-0.3c0-0.2-0.1-0.3-0.1-0.4c-0.1-0.3-0.2-0.6-0.4-0.8c-0.3-0.4-0.7-0.7-1.1-0.9c-0.3-0.2-0.6-0.3-0.9-0.5
	c-0.4-0.3-0.8-0.6-1.3-0.8c-0.2-0.1-0.4-0.3-0.7-0.4c-0.3-0.1-0.7-0.2-1-0.4c0,0,0,0-0.1,0C66.4,6,66.3,6,66.2,6
	c-0.1,0-0.2,0-0.2-0.1c-0.1,0-0.1-0.1-0.2-0.1c-0.2,0-0.3,0-0.5-0.1c-0.2-0.1-0.5-0.1-0.7-0.1c-0.2,0-0.3,0-0.5-0.1
	c-0.1,0-0.2,0-0.3-0.1c-0.2,0-0.4-0.1-0.6-0.1c-0.1,0-0.2,0-0.3-0.1c-0.2,0-0.3-0.1-0.5-0.1c-0.1,0-0.2-0.1-0.3-0.1
	c-0.1,0-0.3,0-0.4,0c-0.4,0-0.7-0.1-1.1,0c-0.4,0-0.8,0-1.1,0.2c-0.3,0.1-0.6,0.1-0.8-0.1c0,0-0.1,0-0.2,0
	C58.4,5.2,58.3,5.2,58.2,5.2L58.2,5.2z M44.9,22.8L44.9,22.8c0-0.3,0-0.6,0-0.9c0-0.1,0-0.2,0-0.3c0.1-0.2,0.1-0.3,0.1-0.5
	c0-0.1,0-0.1,0.1-0.2c0-0.1,0.1-0.2,0.1-0.3c0-0.1,0.1-0.2,0.1-0.3c0-0.1,0-0.1,0.1-0.2c0-0.2,0.2-0.4,0.1-0.7c0,0,0-0.1,0-0.1
	c0-0.1,0.1-0.1,0.1-0.2c0-0.2,0-0.3,0.2-0.5c0,0,0-0.1,0-0.1c0.1-0.2,0.1-0.4,0.2-0.6c0.1-0.2,0.2-0.4,0.2-0.6
	c0.1-0.2,0.2-0.3,0.2-0.5c0.1-0.3,0.3-0.5,0.4-0.8c0.1-0.2,0.2-0.5,0.4-0.7c0.1-0.2,0.2-0.4,0.4-0.6c0.2-0.3,0.4-0.6,0.6-0.8
	c0.2-0.3,0.5-0.6,0.7-0.9c0.2-0.3,0.5-0.6,0.7-0.9c0.1-0.2,0.3-0.3,0.4-0.5c0.2-0.3,0.4-0.6,0.7-0.8c0.4-0.3,0.8-0.6,1.2-0.8
	c0.4-0.2,0.8-0.5,1.3-0.7c0.3-0.1,0.5-0.3,0.8-0.3C54,9.1,54,9,54,9c0.1,0,0.1-0.1,0.2-0.1c0.1,0,0.2,0,0.2,0
	c0.2-0.1,0.3-0.2,0.5-0.1c0,0,0.1,0,0.1,0c0.1,0,0.2-0.1,0.3-0.1c0.1,0,0.2-0.1,0.3-0.1c0,0,0.1,0,0.1,0c0.2,0,0.3-0.1,0.4-0.1
	c0.2-0.1,0.5-0.1,0.7-0.2c0.2-0.1,0.4,0,0.6-0.1c0.1,0,0.1,0,0.2,0c0.1,0,0.3,0,0.4,0c0.3,0,0.6-0.1,0.9-0.1c0.5,0,1,0,1.5,0
	c0.5,0,1.1,0.1,1.6,0.1c0.5,0,0.9,0,1.4,0c0,0,0.1,0,0.1,0c0.3,0.1,0.5,0.1,0.8,0.1c0,0,0.1,0,0.1,0c0.2,0.1,0.3,0.1,0.5,0.1
	c0.1,0,0.2,0.1,0.4,0.1c0.1,0,0.3,0,0.4,0.1c0,0,0.1,0,0.1,0c0.2,0.1,0.4,0.1,0.5,0.2c0,0,0,0,0,0c0.1,0,0.1,0.1,0.2,0.1
	C66.8,9,67,9.1,67.1,9.1c0.4,0.2,0.7,0.5,1.1,0.7c0.4,0.3,0.8,0.6,1.2,1c0.3,0.3,0.6,0.7,1,1c0.4,0.4,0.8,0.8,1.2,1.2
	c0.1,0.1,0.1,0.1,0.2,0c0.2-0.2,0.4-0.4,0.6-0.7c0.1-0.1,0.1-0.3,0-0.4c0,0-0.1-0.1-0.1-0.1c-0.2-0.2-0.3-0.3-0.5-0.5
	c-0.3-0.3-0.6-0.6-0.8-0.9c-0.4-0.5-0.8-0.9-1.3-1.3c-0.2-0.1-0.4-0.2-0.6-0.4c-0.2-0.1-0.4-0.2-0.6-0.3c-0.2-0.1-0.3-0.2-0.5-0.2
	c-0.2-0.1-0.3-0.1-0.5-0.2c-0.2-0.1-0.5-0.2-0.7-0.3c0,0,0,0-0.1,0c-0.1,0-0.2-0.1-0.3-0.1c-0.2-0.1-0.4-0.1-0.5-0.2
	c-0.1,0-0.1,0-0.2-0.1c-0.3-0.1-0.5-0.2-0.8-0.2c0,0,0,0,0,0c-0.2,0-0.3-0.1-0.5-0.1c-0.1,0-0.2-0.1-0.3-0.1C63.7,7,63.5,7,63.3,7
	c-0.1,0-0.2,0-0.3,0c-0.3,0-0.6,0-0.8-0.1c-0.2,0-0.3-0.1-0.5-0.1c-0.4,0-0.7,0-1.1,0c-0.6,0-1.2-0.1-1.8,0.1
	c-0.3,0.1-0.6,0-0.9,0.1c-0.1,0-0.2,0-0.2,0c-0.2,0.1-0.4,0.1-0.5,0.1c-0.1,0-0.2,0-0.3,0.1c-0.1,0-0.2,0.1-0.3,0.1
	c-0.1,0-0.3,0-0.4,0.1c-0.1,0.1-0.2,0.1-0.4,0.1c-0.1,0-0.1,0-0.2,0c-0.1,0.1-0.2,0.1-0.3,0.1c-0.1,0-0.2,0-0.3,0.1c0,0,0,0-0.1,0
	c-0.2,0-0.3,0-0.5,0.2c0,0,0,0-0.1,0c-0.1,0-0.3,0.1-0.4,0.2c-0.1,0-0.3,0.1-0.4,0.1c-0.2,0-0.3,0.2-0.5,0.2c0,0,0,0,0,0
	c-0.1,0.1-0.2,0.1-0.2,0.1c-0.1,0.1-0.3,0.1-0.4,0.2c-0.1,0.1-0.3,0.2-0.4,0.2c-0.2,0-0.3,0.2-0.4,0.2c-0.3,0.2-0.7,0.4-1,0.6
	c-0.4,0.2-0.7,0.5-1,0.9c-0.2,0.3-0.3,0.6-0.5,0.8c-0.1,0.2-0.2,0.5-0.4,0.7c-0.2,0.3-0.5,0.7-0.7,1c-0.4,0.5-0.9,1-1.3,1.5
	c-0.2,0.2-0.3,0.4-0.4,0.6c-0.1,0.2-0.2,0.3-0.3,0.5c-0.1,0.2-0.3,0.4-0.4,0.6c-0.1,0.3-0.3,0.5-0.4,0.8c0,0,0,0,0,0
	c0,0.1-0.1,0.2-0.1,0.2c0,0,0,0.1,0,0.1c-0.1,0.2-0.2,0.3-0.2,0.5c0,0.1-0.1,0.2-0.1,0.4c-0.1,0.2-0.1,0.3-0.2,0.5
	c-0.1,0.3-0.1,0.6-0.2,0.9c0,0.1-0.1,0.2-0.1,0.3c0,0.2,0,0.4-0.2,0.6c0,0,0,0.1,0,0.2c0,0,0,0.1,0,0.1c0,0.2,0,0.5-0.1,0.7
	c-0.1,0.2,0,0.4,0,0.6c0,0.4,0,0.8,0,1.2c0,0.4,0,0.8,0,1.2c0,0.2,0,0.4,0.1,0.7c0,0.1,0.1,0.3,0.1,0.4c0,0.3,0,0.6,0.2,0.9
	c0,0,0,0,0,0.1c0,0.4,0.1,0.7,0.2,1c0,0.2,0.1,0.4,0.1,0.6c0,0.1,0,0.1,0,0.2c0.1,0.2,0.1,0.5,0.2,0.8c0.1,0.2,0.1,0.4,0.2,0.6
	c0.1,0.2,0.2,0.4,0.3,0.7c0.1,0.2,0.1,0.3,0.2,0.5c0.1,0.1,0.1,0.3,0.2,0.5c0.2,0.4,0.4,0.7,0.6,1c0.3,0.6,0.7,1.1,1.2,1.5
	c0.3,0.2,0.5,0.4,0.8,0.6c0.3,0.2,0.5,0.3,0.8,0.5c0.1,0.1,0.2,0.1,0.4,0.2c0.2,0.1,0.3,0.2,0.5,0.2c0,0,0,0,0,0
	c0.1,0,0.2,0.1,0.3,0.1c0.2,0.1,0.3,0,0.4-0.1c0.2-0.2,0.3-0.4,0.5-0.6c0,0,0.1-0.1,0.1-0.2c0,0-0.1-0.1-0.1-0.1
	c-0.2-0.1-0.5-0.2-0.7-0.3c-0.2-0.1-0.5-0.3-0.7-0.5c-0.2-0.2-0.4-0.3-0.6-0.5c-0.2-0.2-0.5-0.5-0.7-0.8c-0.4-0.5-0.7-1.1-1-1.6
	c-0.1-0.1-0.1-0.3-0.2-0.4c-0.1-0.1-0.2-0.3-0.2-0.4c-0.2-0.4-0.3-0.7-0.5-1.1c-0.1-0.1-0.1-0.2-0.2-0.3c-0.1-0.3-0.3-0.6-0.4-0.9
	c-0.1-0.2-0.2-0.4-0.2-0.6c0,0,0,0,0-0.1c-0.1-0.2-0.2-0.4-0.2-0.6c0-0.1-0.1-0.2-0.1-0.4c-0.1-0.2-0.2-0.4-0.2-0.6
	c0-0.4,0-0.8,0-1.2C44.9,23.9,44.9,23.3,44.9,22.8L44.9,22.8z M75.8,24.9c0-0.5,0-1.1,0-1.6c0-0.3-0.1-0.5-0.1-0.8
	c0-0.1,0-0.2,0-0.3c0-0.3,0-0.6,0-0.9c0-0.3-0.1-0.6-0.1-0.8c0-0.5,0-1.1,0-1.6c0-0.6,0-1.1-0.1-1.7c0-0.1,0-0.2-0.1-0.2
	c-0.1-0.1-0.1-0.3-0.1-0.4c0-0.1,0-0.1,0-0.2c-0.1-0.2-0.2-0.4-0.3-0.7c-0.1-0.1-0.1-0.3-0.1-0.4c-0.1-0.2-0.3-0.5-0.4-0.7
	c-0.3-0.4-0.6-0.8-0.9-1.2c-0.2-0.2-0.4-0.4-0.6-0.6c0-0.1-0.1-0.1-0.1-0.2c-0.1-0.1-0.2,0-0.3,0.1c-0.2,0.2-0.4,0.4-0.5,0.6
	c-0.1,0.1-0.1,0.2,0,0.3c0.1,0.1,0.2,0.3,0.3,0.4c0.2,0.2,0.3,0.5,0.5,0.7c0.2,0.3,0.3,0.5,0.4,0.8c0,0.1,0.1,0.3,0.2,0.4
	c0.1,0.1,0.1,0.2,0.1,0.4c0,0,0,0.1,0,0.1c0.1,0.1,0.1,0.2,0.1,0.4c0,0.1,0,0.1,0,0.2c0,0.1,0.1,0.2,0.1,0.4c0,0.1,0,0.2,0,0.3
	c0.1,0.2,0.1,0.4,0.1,0.6c0,0.2,0,0.4,0,0.6c0.1,0.5,0.2,1,0.1,1.6c0,0.2,0,0.4,0,0.5c0.1,0.3,0.1,0.5,0.1,0.8c0,0.1,0,0.2,0,0.2
	c0,0.2,0.1,0.3,0.1,0.5c0,0.3,0,0.7,0,1c0,0.3,0,0.6-0.1,0.9c0,0.1,0,0.2,0,0.2c0,0.2,0,0.4,0,0.7c0,0.1-0.1,0.3-0.1,0.4
	c0,0.2,0,0.3,0,0.5c0,0.1,0,0.1-0.1,0.2c-0.1,0.1-0.1,0.2-0.1,0.3c0,0.1,0,0.3-0.2,0.4c0,0,0,0.1,0,0.1c0,0.1,0,0.2,0,0.2
	c0,0.1,0,0.1-0.1,0.2c0,0.1,0,0.1-0.1,0.2c0,0-0.1,0.1-0.1,0.1c-0.1,0.2-0.1,0.4-0.2,0.5c-0.1,0.2-0.2,0.4-0.3,0.6c0,0,0,0,0,0.1
	c-0.1,0.1-0.2,0.3-0.2,0.4c-0.1,0.1-0.1,0.3-0.2,0.4c-0.3,0.4-0.6,0.8-1,1.1c-0.4,0.4-0.8,0.8-1.1,1.2c-0.2,0.3-0.4,0.5-0.6,0.8
	c-0.4,0.5-0.9,1-1.4,1.4c-0.2,0.2-0.5,0.4-0.7,0.6c-0.2,0.2-0.4,0.3-0.6,0.4c-0.2,0.1-0.3,0.2-0.5,0.3c-0.1,0.1-0.3,0.1-0.4,0.2
	c-0.2,0.1-0.4,0.3-0.6,0.4c-0.2,0.1-0.5,0.2-0.7,0.4c0,0-0.1,0-0.1,0.1c-0.1,0.1-0.3,0.1-0.4,0.2c0,0,0,0,0,0
	c-0.2,0.1-0.4,0.1-0.5,0.2c0,0,0,0,0,0c-0.1,0.1-0.2,0.1-0.4,0.2c-0.1,0-0.1,0-0.1,0.1c-0.1,0.1-0.2,0.1-0.4,0.1c-0.1,0-0.2,0-0.2,0
	c-0.1,0.1-0.3,0.1-0.5,0.1c-0.4,0-0.8,0-1.2,0.1c-0.2,0-0.5,0.1-0.7,0.1c-0.6,0-1.2,0-1.9,0c-0.1,0-0.2-0.1-0.3-0.1
	c-0.2,0-0.4-0.1-0.5-0.2C57.4,37.2,57.2,37,57,37c0,0,0,0,0,0c-0.1,0-0.2-0.1-0.4-0.1c-0.1,0-0.1,0-0.2,0c-0.1,0-0.2-0.1-0.3-0.1
	c-0.1,0-0.2,0-0.3-0.1c-0.1,0-0.2-0.1-0.3-0.1c-0.1,0-0.2,0-0.3-0.1c-0.1,0-0.2-0.1-0.3-0.1c-0.2-0.1-0.4-0.1-0.6-0.2
	c-0.2-0.1-0.4-0.2-0.5-0.3c-0.2-0.1-0.4-0.2-0.6-0.4c-0.2-0.1-0.4-0.3-0.6-0.4c-0.3-0.1-0.6-0.3-0.9-0.4c0,0-0.1,0-0.1-0.1
	c-0.1-0.1-0.3-0.1-0.4,0c-0.2,0.2-0.3,0.5-0.5,0.7c-0.1,0.1,0,0.1,0,0.1c0.1,0.1,0.2,0.1,0.3,0.2c0.3,0.1,0.5,0.3,0.8,0.4
	c0.2,0.1,0.4,0.3,0.6,0.4c0.2,0.1,0.4,0.2,0.5,0.3c0.2,0.1,0.5,0.3,0.8,0.4c0.2,0.1,0.4,0.1,0.6,0.2c0,0,0.1,0,0.1,0
	c0.2,0.1,0.3,0.1,0.5,0.1c0.1,0,0.2,0,0.3,0.1c0.1,0,0.1,0.1,0.2,0.1c0.2,0,0.4,0,0.6,0.1c0.3,0.1,0.6,0.2,0.9,0.2
	c0.1,0,0.1,0,0.2,0c0,0,0.1,0,0.1,0c0.1,0,0.2,0.1,0.3,0.1c0,0,0.1,0,0.1,0.1c0.2,0.1,0.3,0.2,0.5,0.3c0.2,0.1,0.3,0.2,0.5,0.2
	c0.1,0,0.2,0.1,0.3,0.1c0.2,0,0.3,0,0.5,0.1c0.2,0.1,0.5,0.1,0.7,0.1c0.3,0,0.6,0,0.9-0.1c0.2,0,0.3,0,0.5,0.1c0.2,0,0.4,0,0.7,0
	c0.4,0.1,0.8,0,1.2,0c0.1,0,0.3-0.1,0.4-0.1c0.2,0,0.3-0.1,0.4-0.1c0.3-0.2,0.6-0.3,0.9-0.5c0.4-0.2,0.8-0.5,1.1-0.7
	c0.4-0.3,0.8-0.5,1.1-0.8c0.4-0.3,0.8-0.6,1.1-1c0.3-0.3,0.5-0.6,0.8-0.8c0.2-0.2,0.4-0.5,0.6-0.7c0.3-0.4,0.6-0.9,1-1.3
	c0.3-0.3,0.6-0.6,0.9-0.9c0.4-0.3,0.8-0.6,1.2-1c0.2-0.3,0.4-0.6,0.6-1c0.2-0.4,0.4-0.7,0.6-1c0.2-0.3,0.5-0.6,0.8-1
	c0.2-0.3,0.4-0.6,0.5-0.9c0-0.1,0-0.2,0.1-0.4c0.1-0.2,0.1-0.4,0.1-0.6C75.8,25.8,75.8,25.3,75.8,24.9L75.8,24.9z M49.4,6.6
	c-0.1,0-0.2,0-0.4,0c-0.3,0.1-0.6,0.2-0.9,0.5c-0.5,0.4-0.8,0.9-1.1,1.4c-0.3,0.5-0.5,0.9-0.8,1.4c-0.1,0.1-0.1,0.2,0,0.3
	c0.1,0.1,0.1,0.2,0.2,0.3c0.2,0.2,0.3,0.4,0.5,0.6c0.1,0.1,0.2,0.1,0.3,0c0-0.1,0.1-0.1,0.1-0.2c0.1-0.1,0.2-0.3,0.2-0.4
	s0.1-0.3,0.2-0.4c0.1-0.2,0.3-0.5,0.4-0.7c0.2-0.2,0.3-0.5,0.5-0.6c0.2-0.2,0.4-0.4,0.7-0.5c0.2-0.1,0.4-0.2,0.6-0.2
	c0.2,0,0.3-0.1,0.4-0.2c0.4-0.4,0.8-0.7,1.3-0.9c0.2-0.1,0.5-0.2,0.7-0.3c0.2-0.1,0.3-0.1,0.5-0.2c0.2-0.1,0.4-0.3,0.6-0.4
	c0.2-0.1,0.5-0.2,0.7-0.2c0,0,0.1,0,0.1,0c0.2-0.1,0.4-0.1,0.6-0.1c0.1,0,0.2,0,0.2,0c0.2-0.1,0.3-0.1,0.5-0.1c0.1,0,0.1,0,0.2,0
	c0.2,0,0.3-0.1,0.5-0.1c0.3,0,0.7-0.1,1-0.1C58,5,58.4,5,58.8,5.1c0.3,0.1,0.7,0.1,1-0.1c0,0,0.1,0,0.1,0c0.5,0,0.9,0,1.4,0
	c0.3,0,0.6,0,0.9,0c0.1,0,0.1,0,0.2,0c0.2,0,0.3,0.1,0.5,0.1c0.1,0,0.3,0.1,0.4,0.1c0,0,0.1,0,0.1,0c0.3,0,0.6,0,0.8,0.1
	c0.1,0.1,0.3,0,0.5,0c0.1,0,0.3,0,0.4,0c0.2,0.1,0.3,0.1,0.5,0.1c0.1,0,0.2,0,0.3,0.1c0.1,0.1,0.2,0.1,0.4,0.1c0.1,0,0.1,0,0.2,0
	C66.6,6,66.8,6,67.1,6.1c0.2,0.1,0.5,0.2,0.7,0.3c0.2,0.1,0.5,0.3,0.7,0.4C68.7,6.9,68.8,7,69,7.1c0.3,0.2,0.5,0.4,0.8,0.6
	c0.1,0.1,0.2,0.1,0.3,0.2c0.2,0.1,0.4,0.2,0.6,0.3c0.2,0.2,0.5,0.4,0.7,0.6c0.1,0.1,0.3,0.3,0.4,0.5c0.1,0.2,0.3,0.5,0.3,0.8
	c0,0,0,0,0,0.1c0,0.1,0.1,0.2,0.1,0.3c0,0.1,0,0.2,0,0.4c0,0,0,0.1,0.1,0.1c0.1,0,0.1,0,0.2-0.1c0.1-0.1,0.1-0.2,0.2-0.3
	c0.1-0.2,0.2-0.4,0.3-0.6c0.1-0.1,0.1-0.2,0.2-0.3c0.1-0.2,0.2-0.4,0.1-0.6c-0.1-0.2-0.2-0.4-0.4-0.6c-0.2-0.2-0.5-0.5-0.7-0.7
	c-0.3-0.3-0.7-0.5-1.2-0.7c-0.2-0.1-0.4-0.1-0.6-0.2c-0.2-0.1-0.5-0.3-0.7-0.5c-0.1-0.1-0.3-0.2-0.4-0.3c-0.6-0.6-1.3-1-2.1-1.3
	c-0.4-0.2-0.8-0.3-1.3-0.4c-0.4-0.1-0.7-0.1-1.1-0.2c-0.5,0-1-0.1-1.5-0.2c-0.4-0.1-0.7-0.2-1.1-0.3c-0.5-0.1-1.1-0.2-1.6-0.2
	c-0.2,0-0.4,0-0.5,0.1c-0.3,0.1-0.6,0.2-1,0.3c-0.2,0-0.4,0-0.6-0.1c-0.2-0.1-0.3-0.2-0.5-0.2c-0.3,0-0.6,0-0.9,0
	c-0.5,0.1-1,0.1-1.6,0.2c-0.3,0-0.6,0-1,0.1c-0.3,0-0.5,0.1-0.8,0.1c-0.2,0-0.3,0-0.5,0.1c-0.3,0.1-0.6,0.3-0.8,0.5
	c-0.2,0.2-0.4,0.4-0.7,0.4c-0.1,0-0.2,0-0.3,0.1c-0.4,0.1-0.8,0.3-1.1,0.6c-0.2,0.2-0.4,0.5-0.5,0.7C49.9,6.5,49.7,6.6,49.4,6.6
	L49.4,6.6z M68.5,38.4c0,0.1,0.1,0.2,0.1,0.3c0,0.1,0.1,0.2,0.2,0.3c0.3,0.2,0.6,0.3,0.9,0.5c0,0,0.1,0,0.2,0
	c0.2-0.1,0.3-0.1,0.5-0.2c0.4-0.2,0.6-0.5,0.9-0.8c0.2-0.3,0.4-0.6,0.6-0.9c0.2-0.3,0.3-0.6,0.4-0.9c0.1-0.2,0.2-0.3,0.4-0.4
	c0.1-0.1,0.3-0.1,0.4-0.2c0.3-0.1,0.6-0.3,0.8-0.5c0.3-0.3,0.5-0.7,0.6-1.1c0-0.2,0.1-0.3,0.1-0.5c0-0.2,0.1-0.4,0.3-0.5
	c0.1,0,0.1-0.1,0.2-0.1c0.2-0.1,0.4-0.3,0.5-0.6c0.1-0.2,0.2-0.5,0.3-0.7c0.1-0.3,0.3-0.6,0.5-0.9c0.2-0.2,0.4-0.4,0.6-0.6
	c0.2-0.2,0.3-0.5,0.4-0.8c0.1-0.2,0-0.5,0.1-0.8c0-0.4,0-0.7,0-1.1c0-0.4,0.1-0.7,0.2-1c0.1-0.3,0.3-0.6,0.5-0.9
	c0.2-0.3,0.4-0.7,0.4-1.1c0-0.5-0.1-0.9-0.3-1.3c-0.1-0.2-0.2-0.4-0.2-0.6c0-0.3,0-0.5,0-0.8c0-0.1,0-0.2,0.1-0.3
	c0.1-0.3,0.3-0.6,0.5-0.9c0.2-0.3,0.1-0.6,0.1-0.9c0-0.2-0.1-0.4-0.2-0.5c-0.1-0.3-0.2-0.6-0.2-0.9c-0.1-0.3-0.1-0.7-0.3-1
	c-0.1-0.4-0.2-0.7-0.3-1.1c-0.1-0.3-0.1-0.7-0.2-1c0-0.2-0.1-0.4-0.2-0.7c-0.1-0.2-0.1-0.5-0.2-0.7c-0.1-0.4-0.3-0.8-0.4-1.2
	c0,0,0,0,0,0c-0.1-0.3-0.2-0.6-0.4-0.8c-0.2-0.2-0.4-0.4-0.6-0.6c-0.3-0.3-0.6-0.5-0.9-0.7c-0.1,0-0.2,0-0.2,0
	c-0.3,0.1-0.6,0.3-0.8,0.6c-0.1,0.1-0.1,0.1-0.2,0.2c-0.1,0.1,0,0.1,0.1,0.1c0.1,0,0.1,0,0.2,0.1c0.2,0.1,0.3,0.2,0.5,0.2
	c0.2,0.1,0.3,0.2,0.5,0.3c0.4,0.3,0.6,0.7,0.9,1.1c0.1,0.2,0.2,0.4,0.3,0.6c0.1,0.2,0.2,0.3,0.3,0.5c0,0.1,0,0.1,0,0.2
	c0,0,0,0.1,0,0.1c0,0.1,0.1,0.1,0.1,0.2c0,0.2,0,0.3,0.1,0.4c0,0,0,0.1,0,0.2c0,0.2,0,0.4,0.1,0.6c0,0.1,0,0.2,0.1,0.3
	c0,0.2,0,0.5,0.1,0.7c0.1,0.3,0.1,0.5,0.1,0.8c0,0.1,0,0.2,0,0.3c0.1,0.2,0.1,0.3,0.1,0.5c0,0.1,0,0.3,0,0.4C77,19.8,77,20,77,20.2
	c0,0.1,0,0.2,0,0.3c0.1,0.2,0.1,0.4,0.1,0.6c0,0.1,0,0.1,0,0.2c0.1,0.3,0.2,0.6,0,0.8c0,0,0,0.1,0,0.1c0,0.1,0,0.3-0.1,0.4
	C77,22.8,77,22.9,77,23.1c0,0.4,0,0.8,0,1.2c0,0.1,0.1,0.2,0.1,0.3c0,0.3,0.1,0.5,0.1,0.8c0,0.1,0,0.1,0,0.2c0,0.2,0,0.4-0.1,0.5
	c0,0.1,0,0.1-0.1,0.2c0,0.1-0.1,0.1-0.1,0.2c-0.1,0.2-0.1,0.3-0.2,0.5c-0.1,0.2-0.2,0.3-0.3,0.5c-0.1,0.1-0.2,0.3-0.2,0.4
	c0,0,0,0,0,0.1c-0.1,0-0.1,0.1-0.1,0.2c0,0.1,0,0.2,0,0.2c-0.1,0.1-0.1,0.1-0.1,0.2c0,0.1,0,0.2-0.1,0.3c0,0.1-0.1,0.1-0.1,0.2
	c0,0.2,0,0.3-0.1,0.4c0,0,0,0.1,0,0.1c0,0.1-0.1,0.2-0.1,0.3c0,0.1-0.1,0.1-0.1,0.2c0,0,0,0.1,0,0.1c-0.2,0.2-0.3,0.5-0.5,0.7
	c-0.4,0.4-0.7,0.8-1,1.3c-0.2,0.3-0.4,0.6-0.7,0.7c-0.1,0-0.2,0.1-0.2,0.2c-0.1,0.1-0.2,0.3-0.3,0.4c-0.1,0.2-0.1,0.3-0.2,0.5
	c-0.1,0.2-0.2,0.3-0.3,0.5c-0.3,0.4-0.6,0.7-1.1,1c-0.1,0.1-0.2,0.1-0.2,0.2c-0.2,0.3-0.4,0.7-0.7,1c-0.1,0.2-0.3,0.4-0.5,0.6
	c-0.2,0.3-0.5,0.5-0.7,0.7C69,38.1,68.8,38.3,68.5,38.4L68.5,38.4z M76.4,16.9C76.4,16.9,76.4,16.9,76.4,16.9c0-0.1,0-0.2,0-0.4
	c0-0.1-0.1-0.3-0.1-0.4c0-0.2-0.1-0.4-0.1-0.6c-0.1-0.2-0.1-0.3-0.2-0.5c-0.1-0.2-0.1-0.3-0.2-0.5c-0.1-0.2-0.1-0.3-0.2-0.5
	c0-0.1-0.1-0.2-0.1-0.3c-0.2-0.3-0.4-0.6-0.6-0.8c-0.2-0.2-0.4-0.5-0.7-0.5c0,0,0,0-0.1,0c-0.2-0.1-0.3-0.2-0.5-0.2
	c-0.1,0-0.2-0.1-0.2-0.1c-0.1-0.1-0.2-0.1-0.3,0.1c0,0.1,0,0.2-0.1,0.3c-0.1,0.2,0,0.2,0.1,0.3c0.2,0.2,0.4,0.5,0.6,0.7
	c0.1,0.1,0.2,0.2,0.3,0.4c0.2,0.3,0.4,0.5,0.6,0.8c0.1,0.1,0.2,0.2,0.2,0.4c0.1,0.1,0.1,0.3,0.2,0.4c0.1,0.2,0.1,0.3,0.2,0.5
	c0,0,0,0,0,0.1c0,0.1,0.1,0.2,0.1,0.3c0,0,0,0.1,0,0.1c0,0.1,0.1,0.1,0.1,0.2c0,0.1,0,0.2,0.1,0.3c0.1,0.2,0.1,0.3,0.1,0.5
	c0,0.4,0,0.9,0,1.3c0,0.2,0,0.3,0,0.5c0,0.3,0,0.5,0,0.8c0,0.3,0,0.6,0,0.8c0.1,0.5,0.1,0.9,0.1,1.4c0,0.1,0,0.2,0,0.4
	c0.1,0.3,0.1,0.6,0.1,0.9c0,0.6,0,1.1,0,1.7c0,0.5,0,1,0,1.5c0,0.1,0,0.2-0.1,0.3c0,0.1-0.1,0.2-0.1,0.2c0,0.1,0,0.3-0.1,0.4
	c0,0,0,0.1,0,0.1c-0.1,0.1-0.1,0.3-0.2,0.4c-0.1,0.2-0.2,0.3-0.3,0.5c-0.2,0.2-0.4,0.4-0.5,0.6c-0.2,0.3-0.5,0.6-0.7,1
	c-0.1,0.1-0.1,0.3-0.2,0.4c-0.1,0.2-0.3,0.5-0.4,0.7c-0.3,0.4-0.7,0.7-1.1,1c-0.2,0.2-0.4,0.3-0.6,0.5c-0.4,0.4-0.8,0.8-1.1,1.3
	c-0.2,0.3-0.4,0.6-0.7,0.9c-0.3,0.4-0.7,0.8-1.1,1.2c-0.5,0.4-1,0.8-1.4,1.2c-0.1,0.1-0.2,0.2-0.3,0.2c-0.2,0.1-0.2,0.2,0,0.3
	c0.3,0.2,0.5,0.5,0.7,0.7c0.1,0.1,0.1,0.1,0.2,0.1c0.2-0.1,0.5-0.1,0.7-0.3c0,0,0,0,0.1,0c0.1-0.1,0.2-0.1,0.3-0.2
	c0.3-0.3,0.7-0.5,0.9-0.9c0.3-0.4,0.6-0.8,0.8-1.2c0.2-0.3,0.4-0.6,0.7-0.7c0.2-0.1,0.3-0.2,0.5-0.4c0.2-0.2,0.4-0.4,0.5-0.6
	c0.1-0.2,0.3-0.4,0.3-0.6c0.1-0.2,0.2-0.5,0.3-0.6c0.1-0.1,0.3-0.2,0.4-0.3c0.1-0.1,0.3-0.2,0.4-0.3c0.1-0.2,0.3-0.4,0.4-0.6
	c0.2-0.4,0.5-0.7,0.8-1c0.2-0.2,0.3-0.4,0.4-0.6c0.1-0.2,0.1-0.3,0.2-0.5c0-0.1,0.1-0.1,0.1-0.2c0-0.1,0-0.1,0.1-0.2
	c0-0.2,0-0.3,0.1-0.4c0,0,0,0,0,0c0-0.2,0.1-0.3,0.1-0.5c0.1-0.2,0.1-0.4,0.2-0.5c0-0.1,0-0.1,0.1-0.2c0.1-0.2,0.2-0.3,0.3-0.5
	c0.1-0.2,0.2-0.3,0.2-0.5c0.1-0.2,0.2-0.4,0.2-0.5c0-0.1,0-0.2,0.1-0.4c0-0.1,0-0.2,0-0.3c0-0.2-0.1-0.3-0.1-0.5c0-0.1,0-0.3,0-0.4
	c0-0.1-0.1-0.2-0.1-0.3c0-0.2,0-0.3,0-0.5c0-0.4-0.1-0.7,0.1-1.1c0,0,0-0.1,0-0.1c0-0.2,0-0.4,0.1-0.5c0,0,0,0,0-0.1
	c0-0.3,0.1-0.6-0.1-0.9c0,0,0-0.1,0-0.1c0-0.1,0-0.2,0-0.3c-0.1-0.2-0.1-0.5-0.1-0.7c0,0,0,0,0-0.1c-0.1-0.3-0.2-0.7-0.1-1
	c0-0.1,0-0.2,0-0.2c-0.1-0.2-0.1-0.5-0.1-0.7c0-0.1,0-0.3,0-0.4C76.5,17.4,76.4,17.2,76.4,16.9L76.4,16.9z M42.3,30.1
	c0.1,0,0.2-0.1,0.4-0.1c0.1-0.1,0.3-0.2,0.4-0.3c0.1-0.1,0.1-0.1,0.1-0.2c0-0.1-0.1-0.1-0.1-0.2c-0.1-0.1-0.1-0.2-0.1-0.4
	c0-0.2,0-0.3,0-0.5c-0.1-0.3-0.1-0.7-0.1-1c0-0.1,0-0.2-0.1-0.3c0,0,0-0.1,0-0.1c0-0.2,0-0.4-0.2-0.6c0,0,0,0,0,0
	c0-0.2,0-0.4-0.1-0.5c0,0,0-0.1,0-0.1c0-0.1,0-0.1,0-0.2c0-0.1-0.1-0.3-0.1-0.4c0,0,0-0.1,0-0.1c0-0.1-0.1-0.2-0.1-0.3
	c0-0.2,0-0.4,0-0.6c0-0.2,0-0.4,0-0.6c0-0.4,0.1-0.8,0.1-1.2c0-0.1,0-0.3,0-0.4c0.1-0.3,0.2-0.6,0.1-1c0,0,0,0,0-0.1
	c0-0.2,0.1-0.4,0.1-0.6c0-0.2,0-0.5,0.1-0.6c0,0,0,0,0,0c0-0.2,0.1-0.5,0.2-0.7c0.1-0.2,0.1-0.4,0.2-0.6c0.1-0.2,0.1-0.5,0.2-0.7
	c0,0,0-0.1,0-0.1c0.2-0.2,0.2-0.4,0.3-0.6c0.1-0.2,0.1-0.4,0.2-0.6c0.1-0.2,0.2-0.3,0.2-0.5c0.1-0.3,0.2-0.5,0.3-0.8
	c0.1-0.3,0.2-0.5,0.4-0.8c0.2-0.4,0.5-0.7,0.7-1c0.2-0.2,0.5-0.5,0.7-0.7c0.3-0.3,0.6-0.5,0.9-0.8c0.1-0.1,0.1-0.2-0.1-0.2
	c-0.1,0-0.1-0.1-0.2-0.1c-0.1-0.1-0.2-0.2-0.4-0.2c-0.3,0-0.7,0-1,0c-0.2,0-0.5,0.1-0.6,0.2c-0.4,0.3-0.7,0.6-1,1
	c-0.3,0.4-0.5,0.9-0.7,1.4c-0.1,0.2-0.2,0.5-0.3,0.7c-0.1,0.2-0.2,0.5-0.2,0.7c-0.1,0.4-0.2,0.8-0.4,1.1c-0.1,0.4-0.3,0.8-0.4,1.2
	c-0.1,0.4-0.2,0.7-0.2,1.1c-0.1,0.4-0.2,0.7-0.3,1.1c-0.1,0.3-0.1,0.6-0.2,1c-0.1,0.4-0.2,0.7-0.2,1.1c-0.1,0.5-0.2,0.9-0.3,1.4
	c-0.1,0.5-0.1,1.1,0.1,1.6c0.2,0.5,0.4,0.9,0.6,1.4c0.1,0.3,0.2,0.7,0.3,1c0.1,0.4,0.1,0.9,0.2,1.3c0,0.2,0,0.3,0,0.5
	c0,0.1,0,0.3,0,0.4c0,0.1,0.1,0.2,0.1,0.4c0,0.1,0,0.2,0.2,0.3C42.1,30.1,42.1,30.1,42.3,30.1L42.3,30.1z M65,41.8
	c0.1,0,0.3,0,0.4-0.1c0.2-0.1,0.4-0.2,0.5-0.3c0.3-0.2,0.6-0.5,0.9-0.7c0,0,0.1-0.2,0.1-0.2c0-0.1-0.1-0.3-0.2-0.4
	c-0.1-0.1-0.2-0.3-0.2-0.4c0-0.1,0-0.2,0-0.2c0,0,0-0.1-0.1-0.1c0,0-0.1,0-0.1,0c-0.2,0.1-0.3,0.3-0.5,0.4c-0.2,0.2-0.4,0.4-0.7,0.5
	c0,0,0,0,0,0c-0.1,0-0.1,0.1-0.2,0.1c0,0-0.1,0-0.1,0c-0.1,0.1-0.2,0.1-0.4,0.1c-0.1,0-0.1,0-0.2,0c-0.2,0.1-0.4,0.1-0.5,0
	c-0.2,0-0.4,0-0.5-0.1c-0.1,0-0.1,0-0.2-0.1c-0.1,0-0.2-0.1-0.2-0.1c-0.4,0-0.7,0-1.1,0c-0.1,0-0.2,0-0.2,0.1c0,0-0.1,0-0.1,0
	c-0.2,0-0.4,0-0.6,0c-0.2,0-0.4,0-0.6,0c-0.2,0-0.4,0-0.6,0c-0.1,0-0.1,0-0.2-0.1c-0.1,0-0.2-0.1-0.3-0.1c-0.1,0-0.2-0.1-0.3-0.1
	c-0.1,0-0.1,0-0.2-0.1c-0.1,0-0.2-0.1-0.3-0.1c-0.2-0.1-0.4-0.1-0.6-0.2c-0.1,0-0.3,0-0.4-0.1c-0.1-0.1-0.2-0.1-0.3-0.1
	c-0.1,0-0.1,0-0.2,0c-0.2-0.1-0.4-0.2-0.7-0.2c0,0-0.1,0-0.1,0c-0.3-0.1-0.5-0.2-0.8-0.2c-0.2-0.1-0.5-0.1-0.7-0.2c0,0,0,0,0,0
	c-0.2-0.1-0.3-0.2-0.5-0.2c-0.2-0.1-0.4-0.1-0.5-0.2c-0.1,0-0.2-0.1-0.2-0.1c-0.1,0-0.2-0.1-0.3-0.1c-0.2-0.1-0.4-0.2-0.6-0.2
	c-0.2-0.1-0.5-0.1-0.7-0.2c0,0-0.1,0-0.1,0c-0.1,0-0.1-0.1-0.2-0.1c-0.2-0.1-0.5-0.1-0.7-0.2c-0.1,0-0.3,0-0.3,0.1
	c-0.1,0.3-0.2,0.5-0.2,0.8c0,0.1,0,0.1,0,0.2c0,0.1,0,0.2,0.1,0.3c0.5,0.5,1.1,0.7,1.7,0.8C52,40,52.3,40,52.5,40
	c0.3,0,0.5,0.1,0.8,0.1c0.4,0.1,0.7,0.2,1.1,0.3c0.2,0.1,0.5,0.1,0.7,0.2c0.3,0.1,0.5,0.2,0.8,0.3c0.2,0.1,0.4,0.1,0.6,0.2
	c0.2,0.1,0.4,0.2,0.6,0.2c0.3,0.1,0.7,0.2,1,0.2c0.4,0,0.9,0.2,1.3,0.2c0.3,0,0.6,0.1,1,0.1c0.4,0,0.7,0,1.1,0
	c0.4,0,0.7-0.3,1.1-0.4c0.1,0,0.2-0.1,0.4-0.1c0.3,0,0.6,0.1,0.9,0.2C64.3,41.7,64.6,41.8,65,41.8L65,41.8z M64,40.6
	c0.3-0.1,0.5-0.1,0.8-0.2c0,0,0,0,0,0c0.1-0.1,0.3-0.1,0.4-0.2c0.1-0.1,0.3-0.2,0.4-0.2c0.4-0.3,0.8-0.6,1.2-0.9
	c0.1-0.1,0.1-0.1,0-0.2c0-0.1-0.1-0.1-0.1-0.2c-0.1-0.2-0.2-0.4-0.2-0.6c0,0,0-0.1-0.1-0.1c0-0.1-0.1-0.1-0.2,0
	c-0.1,0.1-0.3,0.2-0.4,0.3c-0.1,0-0.1,0.1-0.2,0.1c-0.1,0.1-0.3,0.2-0.4,0.3c-0.1,0.1-0.2,0.1-0.3,0.2c-0.1,0.1-0.3,0.1-0.4,0.2
	c0,0,0,0-0.1,0.1c0,0-0.1,0.1-0.2,0.1c-0.1,0-0.2,0.1-0.2,0.1c-0.1,0-0.1,0.1-0.2,0.1c-0.1,0-0.2,0-0.3,0.1c0,0-0.1,0-0.1,0
	c-0.1,0-0.2,0-0.3,0c-0.6,0-1.3,0.1-1.9-0.1c-0.2-0.1-0.4,0-0.6,0c-0.4,0.1-0.9,0.1-1.3,0c-0.3-0.1-0.5,0-0.8-0.2
	c-0.2-0.1-0.4-0.2-0.7-0.3c-0.1-0.1-0.2-0.1-0.4-0.2c-0.2-0.1-0.4-0.2-0.6-0.2c-0.2,0-0.3-0.1-0.5-0.1c-0.1,0-0.1,0-0.2,0
	C56.1,38,55.9,38,55.7,38c-0.1,0-0.3-0.1-0.4-0.1c-0.1,0-0.1,0-0.2-0.1c-0.2,0-0.4,0-0.6-0.1c0,0-0.1,0-0.1,0c-0.1,0-0.3,0-0.4-0.1
	c0,0-0.1,0-0.1,0c-0.2,0-0.4-0.1-0.5-0.2c-0.1-0.1-0.3-0.2-0.4-0.2c-0.2-0.1-0.4-0.3-0.7-0.4s-0.4-0.3-0.6-0.4
	c-0.1-0.1-0.3-0.2-0.4-0.2c-0.1-0.1-0.3-0.1-0.4,0c-0.1,0.1-0.2,0.2-0.2,0.4c0,0.1-0.1,0.2-0.1,0.3c-0.1,0.1-0.1,0.3-0.2,0.4
	c0,0.1,0,0.2,0.2,0.3c0.1,0,0.2,0.1,0.3,0.1c0.1,0,0.2,0.1,0.3,0.1c0,0,0.1,0,0.1,0c0.2,0.2,0.5,0.1,0.7,0.2
	c0.2,0.1,0.4,0.1,0.6,0.2c0.2,0.1,0.3,0.1,0.5,0.2c0,0,0,0,0,0c0.1,0,0.2,0.1,0.2,0.1c0,0,0.1,0,0.1,0c0.2,0.1,0.4,0.2,0.6,0.3
	c0.2,0.1,0.4,0.2,0.6,0.2c0,0,0,0,0,0c0.1,0.1,0.2,0.1,0.2,0.1c0.3,0.1,0.5,0.2,0.8,0.2c0.1,0,0.2,0.1,0.4,0.1
	c0.1,0,0.2,0.1,0.3,0.1c0.1,0,0.2,0.1,0.4,0.1c0.1,0,0.2,0,0.3,0.1c0.1,0,0.2,0.1,0.3,0.1c0.2,0,0.3,0,0.5,0.1c0,0,0.1,0,0.1,0
	c0.2,0,0.5,0.1,0.7,0.1c0,0,0.1,0,0.1,0.1c0.1,0,0.2,0.1,0.3,0.1c0.1,0,0.2,0,0.3,0.1c0,0,0.1,0,0.1,0c0.3,0,0.6,0.1,0.9,0.1
	c0.1,0,0.1,0,0.2,0c0.3,0,0.5,0,0.8-0.1c0.1,0,0.1,0,0.2-0.1c0.1,0,0.1-0.1,0.2-0.1c0.4,0,0.7,0,1.1,0c0,0,0.1,0,0.1,0
	c0.1,0.1,0.3,0.1,0.5,0.1c0.1,0,0.2,0,0.2,0C63.7,40.5,63.8,40.5,64,40.6L64,40.6z M43.4,32.3c0,0.4,0.1,0.7,0.3,1
	c0.2,0.3,0.5,0.7,0.7,1c0.4,0.5,0.8,1,1.2,1.5c0.4,0.5,0.8,0.9,1.3,1.3c0.4,0.3,0.8,0.6,1.3,0.8c0.1,0,0.2,0.1,0.3,0
	c0.2-0.1,0.4-0.4,0.3-0.6c0-0.2,0-0.3-0.1-0.5c0-0.3-0.1-0.4-0.4-0.4c0,0-0.1,0-0.1,0c-0.1-0.1-0.3-0.1-0.4-0.2
	c-0.2-0.1-0.3-0.2-0.4-0.3c-0.6-0.4-1.1-0.9-1.5-1.5c-0.2-0.3-0.4-0.6-0.6-0.8c-0.2-0.2-0.3-0.5-0.5-0.7c-0.2-0.2-0.3-0.4-0.5-0.7
	c-0.2-0.2-0.3-0.5-0.3-0.8c0,0-0.1-0.1-0.1-0.1c0,0-0.1,0-0.1,0.1c-0.1,0.1-0.1,0.2-0.2,0.3C43.5,31.8,43.3,32,43.4,32.3L43.4,32.3z
	 M48.8,36.3c0.1,0,0.1,0,0.2,0c0.3-0.1,0.5-0.3,0.8-0.6c0,0,0.1-0.1,0.1-0.2c0-0.1-0.1-0.2-0.2-0.2c-0.2,0-0.4-0.2-0.6-0.2
	c-0.2-0.1-0.3-0.2-0.5-0.2c-0.2-0.1-0.4-0.2-0.6-0.4c-0.3-0.2-0.6-0.5-0.9-0.8c-0.2-0.2-0.5-0.5-0.7-0.7c-0.2-0.2-0.3-0.5-0.5-0.8
	c-0.1-0.2-0.3-0.5-0.4-0.7c-0.1-0.2-0.2-0.3-0.2-0.5c-0.1-0.2-0.2-0.3-0.2-0.5c-0.1-0.2-0.1-0.4-0.2-0.6c0-0.2-0.2-0.2-0.3-0.1
	c-0.1,0.1-0.2,0.2-0.3,0.2c-0.1,0.1-0.2,0.2-0.1,0.4c0.1,0.2,0.1,0.4,0.1,0.6c0,0.1,0,0.3,0.1,0.4c0.1,0.3,0.3,0.6,0.5,0.9
	c0.2,0.4,0.5,0.7,0.7,1.1c0.2,0.3,0.5,0.6,0.7,0.9c0.2,0.3,0.5,0.5,0.7,0.7c0.3,0.3,0.5,0.5,0.9,0.7c0.1,0.1,0.2,0.1,0.4,0.2
	c0.1,0.1,0.3,0.2,0.4,0.2c0,0,0,0,0.1,0C48.6,36.3,48.7,36.3,48.8,36.3L48.8,36.3z M46,23.8c0-0.3,0-0.6,0.1-0.9c0-0.1,0-0.3,0-0.4
	c0-0.1,0-0.1,0-0.2c0.1-0.3,0.1-0.7,0.1-1c0-0.2,0-0.4,0.1-0.6c0.1-0.2,0.1-0.4,0.2-0.6c0-0.1,0.1-0.2,0.2-0.3
	c0.1-0.2,0.2-0.4,0.3-0.6c0.1-0.2,0.2-0.4,0.2-0.6c0.1-0.2,0.2-0.4,0.2-0.7c0-0.1,0.1-0.3,0.2-0.4c0.1-0.2,0.2-0.4,0.3-0.6
	c0.1-0.1,0.2-0.3,0.3-0.4c0.1-0.1,0.1-0.2,0.2-0.3c0.1-0.2,0.1-0.4,0.2-0.5c0-0.1,0.1-0.1,0.1-0.2c0.1-0.3,0.2-0.6,0.4-0.8
	c0.2-0.4,0.5-0.8,0.7-1.2c0.4-0.6,0.8-1.2,1.4-1.6c0.3-0.2,0.6-0.3,0.9-0.5c0.2-0.1,0.5-0.3,0.7-0.4c0.2-0.1,0.4-0.2,0.6-0.4
	c0.2-0.1,0.3-0.2,0.5-0.3c0.1,0,0.1,0,0.2-0.1c0.1,0,0.3-0.1,0.4-0.1c0.3-0.1,0.6-0.1,0.9-0.2c0.1,0,0.2-0.1,0.3-0.1
	c0.1,0,0.1,0,0.2,0c0.1,0,0.2-0.1,0.3-0.1c0.1,0,0.1,0,0.2-0.1c0.1,0,0.2-0.1,0.3-0.1c0,0,0,0,0.1,0c0.3-0.1,0.6-0.1,0.9-0.2
	c0.1,0,0.1,0,0.2,0c0.2-0.1,0.4-0.1,0.5-0.1c0.3,0,0.5,0,0.8,0c0.2,0,0.5,0.1,0.7,0.1c0.3,0,0.7,0,1,0c0.4,0,0.7-0.1,1.1-0.1
	c0.5,0,0.9,0,1.4,0c0.3,0,0.5,0.1,0.8,0.2c0.2,0.1,0.4,0.1,0.6,0.1c0.2,0.1,0.3,0.2,0.5,0.2c0.2,0.1,0.4,0.2,0.5,0.3
	c0.3,0.2,0.7,0.5,1,0.7c0.4,0.3,0.7,0.7,1.1,1c0.2,0.2,0.5,0.5,0.7,0.7c0.2,0.2,0.5,0.5,0.7,0.7c0.2,0.2,0.5,0.5,0.7,0.8
	c0.2,0.2,0.4,0.5,0.6,0.8c0.1,0.1,0.2,0.2,0.2,0.3c0,0,0,0.1,0.1,0.1c0.1,0.2,0.2,0.5,0.3,0.7c0.1,0.2,0.2,0.4,0.3,0.6
	c0,0,0,0.1,0,0.1c0,0.1,0.1,0.2,0.1,0.3c0,0.1,0,0.2,0,0.2c0,0,0,0.1,0,0.1c0.1,0.2,0.1,0.4,0.1,0.6c0,0.1,0.1,0.2,0.1,0.2
	c0,0.2,0,0.3,0.1,0.5c0,0.1,0.1,0.2,0.1,0.4c0,0.1,0,0.2,0.1,0.3c0,0.2,0,0.4,0.1,0.6c0.1,0.2,0,0.4,0.1,0.5c0,0.1,0,0.2,0.1,0.3
	c0,0.1,0.1,0.3,0.1,0.4c0,0.2,0,0.3,0.1,0.5c0.1,0.1,0.1,0.2,0.1,0.4c0,0.4,0,0.8,0,1.2c0,0.1-0.1,0.2-0.1,0.3c0,0.1,0,0.1,0,0.2
	c0,0.1,0,0.3-0.2,0.3c0,0,0,0.1,0,0.1c0,0.1,0,0.3-0.1,0.4c0,0,0,0.1,0,0.2c0,0.1,0,0.2-0.1,0.2c-0.1,0.1-0.1,0.3-0.1,0.4
	c0,0.5,0,1.1-0.1,1.6c0,0.2-0.1,0.5-0.1,0.7c0,0,0,0.1,0,0.1c-0.1,0.1-0.1,0.2-0.1,0.3c-0.1,0.2-0.2,0.3-0.2,0.5
	c-0.1,0.2-0.2,0.3-0.3,0.5c-0.2,0.3-0.4,0.5-0.6,0.8c-0.3,0.3-0.5,0.6-0.8,0.9c-0.4,0.4-0.7,0.7-1.1,1.1c-0.4,0.3-0.8,0.6-1.1,0.9
	c-0.4,0.3-0.7,0.5-1.1,0.8c-0.1,0.1-0.3,0.2-0.4,0.3c-0.1,0.1-0.3,0.1-0.4,0.2c0,0-0.1,0-0.1,0.1c0,0,0,0.1-0.1,0.1
	c-0.2,0.1-0.3,0.1-0.5,0.2c-0.1,0.1-0.3,0.1-0.4,0.2c0,0,0,0,0,0c-0.2,0-0.3,0.2-0.5,0.2c-0.1,0-0.1,0.1-0.2,0.1c0,0-0.1,0-0.1,0
	c-0.1,0-0.2,0.1-0.3,0.1c0,0-0.1,0-0.1,0.1c-0.1,0-0.2,0-0.3,0.1c-0.1,0.1-0.2,0.1-0.3,0.1c0,0-0.1,0-0.1,0
	c-0.1,0.1-0.3,0.1-0.4,0.2c-0.2,0.1-0.3,0.1-0.5,0.1c-0.1,0-0.3,0.1-0.4,0.1c-0.1,0-0.2,0-0.4,0.1c-0.1,0.1-0.3,0-0.4,0.1
	c-0.1,0-0.2,0.1-0.3,0.1c-0.1,0-0.2,0.1-0.3,0.1c-0.1,0-0.3,0-0.4,0c-0.5,0.2-1,0.1-1.4,0.1c-0.1,0-0.1,0-0.2,0
	c-0.2,0-0.5-0.1-0.7-0.1c-0.2-0.1-0.4-0.1-0.7-0.2c-0.3-0.1-0.5-0.2-0.8-0.3c0,0-0.1,0-0.1,0c-0.1,0-0.2-0.1-0.3-0.1
	c0,0-0.1,0-0.1,0c-0.1,0-0.2-0.1-0.3-0.1c0,0,0,0,0,0C55,35,54.9,35,54.7,34.9c-0.2-0.1-0.3-0.2-0.5-0.2c-0.2-0.1-0.3-0.2-0.5-0.2
	c-0.2-0.1-0.3-0.2-0.5-0.2c-0.3-0.1-0.6-0.3-0.8-0.4c-0.1,0-0.2-0.1-0.3-0.1c-0.3-0.2-0.7-0.4-1-0.6c-0.4-0.3-0.7-0.6-1-1
	c-0.2-0.3-0.5-0.7-0.7-1c-0.1-0.2-0.3-0.4-0.4-0.6c-0.2-0.3-0.4-0.6-0.5-0.9c-0.2-0.3-0.3-0.5-0.5-0.8c-0.1-0.2-0.2-0.4-0.4-0.6
	c-0.1-0.1-0.1-0.2-0.2-0.3c-0.2-0.3-0.3-0.6-0.4-0.8c-0.1-0.2-0.2-0.3-0.3-0.5c-0.1-0.1-0.1-0.3-0.2-0.4c-0.1-0.2-0.2-0.4-0.3-0.6
	c0-0.1,0-0.1-0.1-0.2c0-0.1-0.1-0.2-0.1-0.2c0,0,0-0.1,0-0.1c0-0.1,0-0.1,0-0.2c0-0.1-0.1-0.3-0.1-0.4C46,24.1,46,24,46,23.8
	L46,23.8z M58.6,35.9C58.6,35.9,58.6,35.9,58.6,35.9c0.3,0,0.7,0,1,0c0,0,0.1,0,0.1,0c0.2-0.1,0.3-0.1,0.5-0.1c0.2,0,0.3,0,0.5-0.1
	c0.1,0,0.2-0.1,0.4-0.1c0.1,0,0.2,0,0.3-0.1c0.1,0,0.2-0.1,0.3-0.1c0.1,0,0.2,0,0.3-0.1c0.1,0,0.2-0.1,0.3-0.1c0,0,0.1,0,0.2,0
	c0.3-0.1,0.5-0.2,0.8-0.3c0.3-0.1,0.7-0.2,1-0.4c0.2-0.1,0.5-0.2,0.7-0.3c0.2-0.1,0.4-0.2,0.6-0.3c0.1-0.1,0.2-0.1,0.3-0.2
	c0.2-0.1,0.5-0.3,0.7-0.4c0.2-0.2,0.5-0.3,0.7-0.5c0.3-0.2,0.6-0.5,0.9-0.7c0.4-0.4,0.9-0.8,1.3-1.2c0.2-0.2,0.5-0.4,0.7-0.7
	c0.3-0.4,0.6-0.8,0.9-1.1c0.3-0.4,0.6-0.9,0.8-1.5c0.1-0.3,0.1-0.6,0.2-1c0-0.2,0-0.5,0-0.7c0-0.4,0-0.8,0.1-1.2
	c0.1-0.2,0.1-0.4,0.2-0.5c0.1-0.2,0.1-0.5,0.2-0.7c0-0.1,0.1-0.2,0.1-0.2c0-0.3,0-0.5,0.1-0.8c0.1-0.6-0.2-1.1-0.2-1.7c0,0,0,0,0,0
	c0-0.2-0.1-0.4-0.1-0.6c0-0.1,0-0.3,0-0.4c-0.1-0.2-0.1-0.4-0.1-0.6c0-0.1,0-0.2-0.1-0.4c0-0.1-0.1-0.3-0.1-0.4
	c0-0.1-0.1-0.3-0.1-0.4c0-0.1,0-0.1,0-0.2c0-0.2-0.1-0.4-0.1-0.6c-0.1-0.2-0.1-0.4-0.2-0.6c-0.1-0.1,0-0.3-0.2-0.4c0,0,0,0,0,0
	c-0.1-0.2-0.1-0.4-0.2-0.6c-0.1-0.3-0.3-0.6-0.5-0.8c-0.2-0.2-0.4-0.5-0.5-0.7c-0.3-0.4-0.7-0.8-1-1.1c-0.3-0.3-0.7-0.6-1-0.9
	c-0.4-0.4-0.9-0.8-1.3-1.2c-0.3-0.3-0.7-0.5-1.1-0.8c-0.2-0.1-0.5-0.2-0.8-0.4c0,0,0,0-0.1,0c-0.2,0-0.3,0-0.5-0.1c0,0-0.1,0-0.2,0
	c-0.2,0-0.3-0.1-0.5-0.1c-0.1,0-0.2-0.1-0.3-0.1c-0.4,0-0.7,0-1.1,0c-0.3,0-0.5,0-0.8,0c-0.3,0-0.5,0.1-0.8,0.1
	c-0.4,0-0.9,0-1.3-0.1c-0.4-0.1-0.8,0-1.2,0c-0.3,0-0.5,0.2-0.8,0.2c0,0-0.1,0-0.1,0c-0.1,0.1-0.1,0.1-0.2,0.1
	c-0.1,0-0.2,0.1-0.3,0.1c-0.1,0-0.1,0.1-0.2,0.1c-0.3,0.1-0.5,0.1-0.8,0.2c0,0,0,0,0,0c-0.1,0-0.3,0.1-0.4,0.1c-0.1,0-0.2,0-0.3,0.1
	c-0.2,0.1-0.3,0.1-0.5,0.1c-0.1,0-0.2,0-0.3,0.1c0,0-0.1,0-0.2,0.1c-0.1,0-0.1,0-0.2,0.1c-0.2,0.1-0.5,0.3-0.7,0.4
	c-0.2,0.1-0.4,0.3-0.7,0.4c-0.1,0.1-0.2,0.1-0.3,0.2c-0.1,0.1-0.2,0.2-0.4,0.2c-0.3,0.1-0.5,0.3-0.7,0.4c-0.3,0.3-0.6,0.6-0.9,0.9
	c-0.2,0.3-0.4,0.5-0.5,0.8c-0.1,0.2-0.2,0.4-0.3,0.5c-0.1,0.2-0.3,0.5-0.4,0.7C49,15,49,15.1,48.9,15.3c0,0.2-0.2,0.3-0.2,0.5
	c0,0,0,0,0,0.1c0,0,0,0.1-0.1,0.1c0,0.1-0.1,0.2-0.1,0.3c-0.1,0.1-0.1,0.3-0.2,0.4c-0.1,0.2-0.1,0.3-0.2,0.5
	c-0.1,0.2-0.2,0.3-0.2,0.5c-0.1,0.2-0.1,0.4-0.2,0.5c0,0,0,0,0,0.1c0,0.1-0.1,0.2-0.1,0.3c-0.1,0.2-0.2,0.4-0.2,0.6
	c0,0.1-0.1,0.2-0.1,0.2c0,0.1,0,0.1-0.1,0.2c-0.1,0.1-0.2,0.3-0.2,0.4c-0.1,0.2-0.2,0.3-0.2,0.5c0,0,0,0,0,0
	c-0.1,0.2-0.2,0.4-0.2,0.7c0,0.1,0,0.3,0,0.4c0,0.2-0.1,0.4-0.1,0.6c0,0.1-0.1,0.2-0.1,0.4c0,0.2,0,0.5-0.1,0.7c0,0.1,0,0.1,0,0.2
	c0,0.3,0,0.6,0,0.9c0,0,0,0.1,0,0.1c0.1,0.2,0.1,0.3,0.1,0.5c0,0,0,0.1,0,0.1c0,0.1,0.1,0.1,0.1,0.2c0,0.1,0.1,0.2,0.1,0.3
	c0.1,0.2,0.1,0.3,0.2,0.5c0.1,0.2,0.1,0.3,0.2,0.5c0.1,0.2,0.2,0.4,0.3,0.6c0.2,0.3,0.3,0.6,0.5,0.9c0.2,0.4,0.5,0.7,0.7,1.1
	c0.2,0.3,0.4,0.6,0.6,0.9c0.2,0.3,0.3,0.5,0.5,0.8c0.1,0.2,0.3,0.5,0.4,0.7c0.1,0.2,0.2,0.3,0.4,0.5c0.3,0.4,0.6,0.8,1.1,1.1
	c0.2,0.1,0.4,0.3,0.7,0.4c0.2,0.1,0.5,0.3,0.7,0.4c0.2,0.1,0.4,0.2,0.5,0.3c0.2,0.1,0.3,0.2,0.5,0.2c0.1,0.1,0.3,0.1,0.4,0.2
	c0.2,0.1,0.3,0.2,0.5,0.3c0.2,0.1,0.3,0.1,0.5,0.2c0,0,0,0,0.1,0c0.1,0,0.2,0.1,0.2,0.1c0.1,0,0.1,0,0.2,0.1c0.1,0,0.1,0.1,0.2,0.1
	c0.3,0.1,0.5,0.2,0.8,0.3c0,0,0.1,0,0.1,0c0.1,0,0.2,0,0.2,0c0.1,0.1,0.3,0.1,0.4,0.1c0.1,0,0.1,0,0.2,0.1c0.2,0.1,0.4,0.1,0.6,0.1
	C58.3,35.9,58.4,35.9,58.6,35.9L58.6,35.9z M61.5,33.9c-0.1,0-0.2,0.1-0.3,0.1c-0.1,0-0.3,0.1-0.4,0.1c-0.1,0-0.2,0-0.4,0.1
	c-0.2,0-0.4,0.1-0.5,0.1c0,0-0.1,0-0.1,0c-0.6,0-1.2,0-1.9,0c-0.2,0-0.4,0-0.5-0.1c-0.1,0-0.2,0-0.3-0.1c-0.1,0-0.2-0.1-0.3-0.1
	c-0.1,0-0.2,0-0.2-0.1c0,0,0,0,0,0c-0.3-0.1-0.5-0.2-0.8-0.3c0,0-0.1,0-0.1,0c-0.3,0-0.5-0.2-0.7-0.4c-0.2-0.1-0.5-0.3-0.7-0.4
	c-0.1-0.1-0.2-0.1-0.3-0.2c-0.3-0.2-0.7-0.3-1-0.5c-0.4-0.2-0.9-0.5-1.2-0.8c-0.3-0.2-0.5-0.5-0.7-0.8c-0.3-0.4-0.5-0.7-0.7-1.1
	c-0.2-0.3-0.3-0.7-0.5-1.1c-0.2-0.4-0.4-0.7-0.5-1.1c-0.1-0.3-0.3-0.5-0.4-0.8c-0.1-0.3-0.3-0.6-0.4-0.9c-0.1-0.3-0.2-0.6-0.3-0.8
	c-0.2-0.5-0.2-1.1-0.2-1.6c0,0,0,0,0,0c0-0.4,0-0.8,0.1-1.2c0-0.1,0-0.2,0-0.3c0-0.1,0-0.2,0.1-0.3c0,0,0-0.1,0.1-0.1
	c0.1-0.2,0.2-0.4,0.2-0.6c0.1-0.2,0.2-0.4,0.2-0.6c0,0,0,0,0,0c0.1-0.1,0.1-0.3,0.2-0.4c0.1-0.1,0.1-0.2,0.1-0.3c0,0,0-0.1,0.1-0.1
	c0-0.1,0-0.1,0.1-0.2c0-0.1,0.1-0.2,0.1-0.2c0,0,0,0,0,0c0.1-0.2,0.1-0.4,0.2-0.6c0-0.1,0.1-0.2,0.1-0.3c0,0,0-0.1,0.1-0.1
	c0-0.1,0-0.3,0.1-0.4c0,0,0-0.1,0-0.1c0-0.1,0-0.2,0-0.2c0.1-0.2,0.1-0.4,0.2-0.6c0.1-0.1,0.1-0.2,0.2-0.4c0-0.1,0.1-0.2,0.2-0.3
	c0.2-0.3,0.4-0.5,0.6-0.8c0.2-0.2,0.4-0.5,0.6-0.7c0.3-0.5,0.6-1,1.1-1.4c0.3-0.2,0.6-0.4,0.9-0.6c0.1-0.1,0.3-0.2,0.4-0.2
	c0.1-0.1,0.2-0.1,0.3-0.2c0.2-0.1,0.3-0.1,0.5-0.2c0,0,0.1,0,0.1,0c0.1-0.1,0.2-0.1,0.4-0.1c0,0,0.1,0,0.1,0
	c0.2-0.1,0.4-0.1,0.6-0.1c0,0,0.1,0,0.1,0c0.1-0.1,0.3-0.1,0.4-0.1c0.1,0,0.2,0,0.2,0c0.1,0,0.2-0.1,0.3-0.1c0.2,0,0.3-0.1,0.5-0.2
	c0.1,0,0.2,0,0.3,0c0.1,0,0.2-0.1,0.2-0.1c0.1,0,0.1-0.1,0.2-0.1c0.2,0,0.4,0,0.5-0.1c0.1,0,0.2,0,0.2,0c1.4,0,2.8,0,4.2,0
	c0.3,0,0.5,0.1,0.8,0.1c0,0,0.1,0,0.1,0c0.2,0,0.3,0,0.5,0.1c0.1,0,0.1,0,0.2,0.1c0.3,0,0.5,0.2,0.8,0.3c0.3,0.1,0.5,0.2,0.7,0.4
	c0.4,0.2,0.8,0.5,1.2,0.9c0.4,0.4,0.8,0.8,1.1,1.2c0.2,0.3,0.4,0.6,0.6,0.9c0.3,0.4,0.6,0.8,0.9,1.3c0.2,0.3,0.4,0.6,0.6,0.9
	c0.1,0.2,0.2,0.4,0.3,0.6c0.1,0.2,0.1,0.4,0.2,0.7c0,0.2,0.1,0.3,0.1,0.5c0.1,0.2,0,0.3,0.1,0.5c0,0.1,0,0.1,0,0.2
	c0,0.1,0.1,0.3,0.1,0.4c0,0.1,0,0.3,0,0.4c0,0.1,0,0.1,0.1,0.2c0,0.1,0.1,0.2,0.1,0.3c0,0.3,0,0.6,0.1,0.8c0,0.2,0.1,0.4,0.1,0.6
	c0,0.1,0,0.3,0,0.4c0,0.2,0,0.3,0.1,0.5c0.1,0.3,0.1,0.6,0,0.9c0,0.2-0.1,0.4-0.1,0.7c0,0.1,0,0.1,0,0.2c0,0.1-0.1,0.3-0.1,0.4
	c0,0,0,0,0,0c-0.1,0.2-0.2,0.4-0.2,0.7c0,0.1-0.1,0.2-0.1,0.3c0,0.1,0,0.1,0,0.2c0,0.2-0.1,0.3-0.1,0.5c0,0,0,0,0,0
	c-0.1,0.3-0.2,0.6-0.2,0.9c0,0.1-0.1,0.3-0.2,0.4c-0.1,0.2-0.3,0.5-0.4,0.7c-0.3,0.3-0.6,0.7-0.9,1c-0.2,0.2-0.5,0.5-0.8,0.7
	c-0.3,0.2-0.5,0.4-0.8,0.6c-0.2,0.2-0.5,0.3-0.7,0.4c-0.3,0.2-0.6,0.4-0.9,0.6c-0.4,0.3-0.8,0.6-1.3,0.8c-0.2,0.1-0.5,0.2-0.8,0.4
	c-0.2,0.1-0.3,0.2-0.5,0.2c0,0,0,0,0,0c-0.2,0.1-0.4,0.1-0.6,0.2c0,0-0.1,0-0.1,0c-0.1,0-0.2,0.1-0.3,0.1c-0.1,0-0.2,0-0.2,0.1
	c0.1,0,0.3,0,0.4,0c0.1-0.1,0.2-0.1,0.3-0.1c0,0,0.1,0,0.1,0c0.1-0.1,0.2-0.1,0.3-0.1c0,0,0.1,0,0.1,0c0.1,0,0.2-0.1,0.3-0.1
	c0,0,0.1,0,0.1-0.1c0.1-0.1,0.3-0.2,0.4-0.2c0.1-0.1,0.3-0.1,0.5-0.2c0.2-0.1,0.4-0.3,0.6-0.4c0.3-0.2,0.5-0.4,0.8-0.5
	c0.2-0.1,0.4-0.3,0.6-0.4c0.2-0.1,0.4-0.3,0.7-0.4c0.1-0.1,0.2-0.1,0.3-0.2c0.1-0.1,0.3-0.2,0.4-0.2c0.2-0.1,0.3-0.2,0.5-0.4
	c0.3-0.2,0.6-0.5,0.8-0.7c0.4-0.4,0.7-0.8,1-1.2c0.1-0.1,0.1-0.2,0.2-0.3c0.1-0.2,0.1-0.3,0.2-0.5c0.1-0.2,0.1-0.4,0.1-0.6
	c0,0,0-0.1,0-0.2c0.1-0.1,0.1-0.2,0.1-0.4c0-0.1,0-0.2,0-0.3c0.1-0.1,0.1-0.3,0.1-0.5c0,0,0-0.1,0-0.1c0.1-0.1,0.1-0.2,0.1-0.4
	c0,0,0-0.1,0-0.1c0.1-0.1,0.1-0.2,0.1-0.4c0-0.1,0-0.1,0-0.2c0.2-0.1,0.1-0.3,0.1-0.5c0-0.1,0-0.3,0-0.4c0.1-0.3,0.1-0.6,0-0.8
	c-0.1-0.3-0.1-0.6-0.1-0.9c0-0.2,0-0.5-0.1-0.7c0,0,0-0.1,0-0.1c0-0.2,0-0.4,0-0.7c0-0.1,0-0.2,0-0.3c0-0.1,0-0.2-0.1-0.3
	c0-0.2,0-0.4-0.1-0.6c0-0.2-0.1-0.3-0.1-0.5c0-0.1,0-0.2-0.1-0.3c-0.1-0.1-0.1-0.2-0.1-0.3c0-0.2,0-0.3-0.1-0.5c0,0,0-0.1,0-0.1
	c0-0.2-0.1-0.4-0.2-0.7c-0.1-0.2-0.2-0.4-0.3-0.6c-0.2-0.3-0.4-0.6-0.6-0.9c-0.3-0.4-0.5-0.8-0.8-1.2c-0.2-0.3-0.5-0.7-0.7-1
	c-0.3-0.4-0.7-0.8-1.1-1.1c-0.2-0.2-0.4-0.3-0.7-0.5c-0.2-0.1-0.4-0.3-0.6-0.4c-0.2-0.1-0.4-0.2-0.6-0.3c-0.2-0.1-0.3-0.1-0.5-0.2
	c0,0,0,0,0,0c-0.2,0-0.4,0-0.5-0.1c0,0-0.1,0-0.2,0c-0.2,0-0.3,0-0.5-0.1c-0.2,0-0.3-0.1-0.5-0.1c-0.5,0-0.9,0-1.4,0
	c-0.4,0-0.8,0-1.3,0c-0.5,0-1.1,0-1.6,0c-0.2,0-0.4,0.1-0.6,0.1c-0.1,0-0.2,0-0.3,0c-0.1,0-0.1,0.1-0.2,0.1c-0.2,0-0.4,0.1-0.6,0.1
	c-0.3,0.1-0.6,0.1-0.9,0.2c-0.2,0-0.3,0.1-0.5,0.1c-0.1,0-0.2,0-0.3,0c-0.2,0.1-0.5,0.1-0.8,0.2c-0.1,0.1-0.3,0.1-0.5,0.2
	c-0.3,0.2-0.6,0.4-0.9,0.5c-0.6,0.3-1.1,0.8-1.5,1.4c-0.3,0.5-0.7,1-1.1,1.5c-0.3,0.4-0.6,0.7-0.7,1.2c0,0,0,0,0,0.1
	c0,0.1-0.1,0.1-0.1,0.2c0,0.1,0,0.2-0.1,0.3c0,0.1-0.1,0.2-0.1,0.3c0,0.1,0,0.1,0,0.2c-0.1,0.2-0.2,0.5-0.3,0.7c0,0,0,0.1,0,0.1
	c0,0,0,0.1,0,0.1c-0.1,0.2-0.2,0.4-0.2,0.6c-0.1,0.2-0.1,0.4-0.2,0.6c0,0.1-0.1,0.1-0.1,0.2c-0.1,0.2-0.1,0.4-0.2,0.6
	c-0.1,0.2-0.2,0.3-0.2,0.5c-0.1,0.2-0.2,0.4-0.2,0.6c0,0,0,0,0,0c-0.1,0.1-0.1,0.3-0.1,0.5c0,0.1,0,0.1,0,0.2c0,0.2-0.1,0.3-0.1,0.5
	c0,0.3,0,0.7,0,1c0,0.1,0,0.3,0,0.4c0,0.1,0,0.3,0,0.4c0.1,0.3,0.2,0.5,0.2,0.8c0.1,0.2,0.1,0.3,0.2,0.5c0.1,0.2,0.2,0.4,0.3,0.6
	c0.1,0.1,0.1,0.3,0.2,0.4c0.2,0.3,0.3,0.6,0.5,0.9c0.1,0.1,0.1,0.2,0.1,0.3c0.1,0.3,0.3,0.5,0.4,0.8c0.1,0.3,0.2,0.5,0.4,0.8
	c0.2,0.3,0.4,0.7,0.6,1c0.2,0.3,0.4,0.6,0.6,0.8c0.3,0.3,0.7,0.6,1,0.8c0.3,0.2,0.7,0.4,1.1,0.6c0.1,0.1,0.2,0.1,0.4,0.2
	c0.3,0.1,0.5,0.3,0.8,0.4c0.2,0.1,0.4,0.2,0.6,0.4c0.1,0.1,0.2,0.1,0.4,0.2c0.2,0.1,0.4,0.1,0.7,0.2c0,0,0,0,0.1,0
	c0.1,0,0.2,0.1,0.4,0.1c0.1,0,0.2,0.1,0.3,0.1c0.1,0,0.1,0,0.2,0c0.1,0,0.2,0,0.2,0c0.2,0,0.4,0.1,0.6,0.1c0.6,0,1.2,0,1.8,0
	c0.1,0,0.3-0.1,0.4-0.1c0.1,0,0.1,0,0.2,0c0.2,0,0.4,0,0.5-0.1c0.1-0.1,0.2-0.1,0.4-0.1c0.1,0,0.1,0,0.2,0c0.2-0.1,0.4-0.1,0.6-0.2
	c0,0,0.1-0.1,0.1-0.1C61.8,33.8,61.7,33.8,61.5,33.9L61.5,33.9z M70.2,23.1c0,0.4,0,0.8,0,1.2c0,0.2,0,0.4-0.1,0.6c0,0,0,0.1,0,0.1
	c0,0.1,0,0.2,0,0.3c0,0.1,0,0.2-0.1,0.4c0,0.1,0,0.2,0,0.3c0,0.1-0.1,0.2-0.1,0.2c0,0.1,0,0.1-0.1,0.2c0,0.1-0.1,0.2-0.1,0.3
	c0,0,0,0.1,0,0.1c0,0.1,0,0.2-0.1,0.3c0,0,0,0,0,0c-0.1,0.1-0.1,0.3-0.2,0.4c-0.1,0.1-0.1,0.3-0.2,0.4c-0.2,0.3-0.5,0.6-0.7,0.9
	c-0.2,0.2-0.5,0.5-0.7,0.7c-0.2,0.2-0.5,0.3-0.8,0.5c0,0-0.1,0-0.1,0c-0.1,0-0.1,0.1-0.2,0.1c-0.1,0-0.2,0-0.2,0.1
	c-0.1,0-0.1,0-0.2,0.1c-0.1,0-0.3,0.1-0.4,0.1c-0.1,0-0.1,0-0.2,0.1c0,0,0,0-0.1,0c-0.2,0-0.4,0.1-0.5,0.2c-0.1,0-0.2,0.1-0.2,0.2
	c-0.2,0.2-0.5,0.4-0.7,0.5c-0.2,0.1-0.4,0.3-0.6,0.4c-0.2,0.1-0.3,0.2-0.5,0.3c-0.2,0.1-0.3,0.1-0.5,0.2c-0.1,0-0.1,0.1-0.2,0.1
	c-0.1,0-0.2,0.1-0.4,0.1c-0.2,0.1-0.3,0.1-0.5,0.2c-0.1,0-0.1,0-0.2,0c-0.1,0-0.2,0-0.3,0.1c-0.1,0.1-0.2,0.1-0.4,0.1
	c-0.1,0-0.3,0.1-0.4,0.1c-0.1,0-0.3,0-0.4,0c-0.3,0-0.6,0-0.9,0c-0.6,0-1.1,0-1.7-0.1c0,0,0,0,0,0c-0.2-0.1-0.5-0.1-0.7-0.2
	c-0.1,0-0.1,0-0.2-0.1c0,0-0.1,0-0.1-0.1c-0.4,0-0.8-0.3-1.1-0.5c-0.2-0.1-0.3-0.2-0.5-0.3c-0.3-0.2-0.6-0.3-0.9-0.5
	c-0.2-0.1-0.4-0.2-0.6-0.4c-0.4-0.3-0.9-0.6-1.2-1c-0.2-0.3-0.5-0.5-0.7-0.8c-0.2-0.2-0.3-0.5-0.4-0.8c-0.1-0.2-0.1-0.3-0.2-0.5
	c0-0.1,0-0.3-0.1-0.4c0-0.1,0-0.2,0-0.2c0-0.1-0.1-0.2-0.1-0.3c0,0,0,0,0,0c-0.1-0.2-0.1-0.5-0.2-0.7c0,0,0-0.1,0-0.1
	c0-0.1-0.1-0.1-0.1-0.2c0-0.1-0.1-0.2-0.1-0.3c0,0,0,0,0,0c0-0.2-0.1-0.3-0.2-0.5c0-0.1-0.1-0.2-0.1-0.3c0,0,0,0,0,0
	c-0.1-0.3-0.1-0.5-0.2-0.8c0-0.1-0.1-0.2-0.1-0.3c0-0.2,0-0.4,0-0.6c0-0.2,0-0.4,0.1-0.5c0.1-0.1,0-0.3,0.1-0.4
	c0.1-0.2,0.1-0.4,0.2-0.6c0.1-0.2,0.1-0.4,0.2-0.5c0,0,0-0.1,0-0.1c0.1-0.2,0.2-0.4,0.3-0.7c0.1-0.2,0.2-0.4,0.2-0.5
	c0,0,0-0.1,0-0.1c0-0.1,0.1-0.2,0.1-0.2c0-0.1,0.1-0.3,0.1-0.4c0-0.1,0-0.1,0-0.2c0.1-0.3,0.1-0.7,0.1-1.1c0-0.2,0.1-0.3,0.1-0.4
	c0,0,0-0.1,0-0.1c0-0.5,0.3-0.8,0.7-1c0.3-0.2,0.5-0.4,0.7-0.6c0.2-0.3,0.4-0.6,0.6-1c0.1-0.2,0.3-0.5,0.5-0.7
	c0.2-0.3,0.5-0.5,0.7-0.7c0.2-0.1,0.5-0.3,0.7-0.4c0.2-0.1,0.4-0.2,0.6-0.2c0,0,0.1,0,0.1,0c0.2,0,0.3,0,0.5-0.1
	c0.1-0.1,0.2,0,0.3-0.1c0.1,0,0.2,0,0.3-0.1c0.1-0.1,0.2,0,0.3-0.1c0.2,0,0.3-0.1,0.5-0.1c0,0,0.1,0,0.1,0c0.1,0,0.3,0,0.4-0.1
	c0.1,0,0.2,0,0.3,0c0.2,0,0.4,0,0.6-0.1c0.2-0.1,0.3-0.1,0.5-0.1c0.3,0,0.7,0,1,0c0.5,0,1,0,1.5,0c0.2,0,0.4,0,0.6,0
	c0.2,0,0.3,0.1,0.5,0.1c0.2,0,0.3,0,0.5,0.1c0.2,0,0.4,0,0.5,0c0.1,0,0.2,0.1,0.3,0.1c0.1,0,0.1,0,0.2,0c0.1,0,0.2,0.1,0.3,0.1
	c0,0,0.1,0,0.1,0c0.1,0,0.2,0.1,0.3,0.1c0,0,0,0,0.1,0c0.2,0,0.4,0.2,0.6,0.3c0.2,0.1,0.4,0.3,0.6,0.5c0.2,0.2,0.3,0.4,0.5,0.6
	c0.1,0.2,0.3,0.4,0.4,0.6c0.1,0.1,0.1,0.3,0.2,0.4c0.1,0.2,0.2,0.3,0.2,0.5c0.1,0.1,0.1,0.2,0.2,0.4c0.2,0.3,0.3,0.6,0.5,0.9
	c0.1,0.2,0.3,0.4,0.5,0.7c0.2,0.2,0.4,0.5,0.5,0.8c0.1,0.2,0.2,0.4,0.2,0.7c0,0,0,0.1,0,0.1c0.2,0.2,0.1,0.5,0.2,0.8
	c0,0.1,0,0.1,0.1,0.2c0,0.1,0.1,0.2,0.1,0.2c0,0.3,0,0.5,0.1,0.8c0.1,0.3,0,0.5,0.1,0.8c0,0.1,0.1,0.2,0.1,0.3c0,0.2,0,0.4,0.1,0.7
	C70.2,22.5,70.2,22.8,70.2,23.1C70.2,23.1,70.2,23.1,70.2,23.1L70.2,23.1z M59.1,11.8C59.1,11.8,59.1,11.7,59.1,11.8
	c-0.2,0-0.3,0-0.5,0.1c-0.1,0-0.2,0-0.2,0c-0.2,0-0.4,0-0.5,0.1c-0.2,0.1-0.3,0.1-0.5,0.1c-0.1,0-0.2,0-0.2,0.1
	c-0.1,0-0.2,0.1-0.3,0.1c-0.1,0-0.3,0-0.3,0.1c-0.1,0.1-0.3,0.1-0.5,0.1c-0.1,0-0.1,0-0.2,0c-0.1,0-0.2,0.1-0.3,0.1
	c-0.2,0-0.4,0.2-0.7,0.2c-0.2,0.1-0.3,0.2-0.5,0.2c-0.1,0.1-0.2,0.1-0.4,0.2c-0.2,0.1-0.3,0.3-0.5,0.5c-0.3,0.3-0.5,0.6-0.7,1
	c-0.2,0.3-0.4,0.6-0.6,0.9c-0.2,0.3-0.5,0.4-0.7,0.6c-0.3,0.2-0.5,0.5-0.6,0.9c0,0,0,0.1,0,0.1c0,0.1-0.1,0.2-0.1,0.2
	c0,0.2,0,0.4,0,0.5c0,0.2,0,0.4-0.1,0.6c0,0.1,0,0.1,0,0.2c0,0.1,0,0.3-0.1,0.4c-0.2,0.2,0,0.5-0.3,0.6c0,0,0,0,0,0
	c-0.1,0.2-0.1,0.4-0.2,0.6c-0.1,0.2-0.2,0.3-0.2,0.5c-0.1,0.2-0.1,0.3-0.2,0.4c0,0.1-0.1,0.2-0.1,0.3c-0.1,0.2-0.1,0.3-0.2,0.5
	c0,0.1,0,0.2,0,0.3c0,0.1-0.1,0.2-0.1,0.3c0,0.3,0,0.6,0,0.9c0,0.2,0.1,0.3,0.1,0.5c0,0.1,0,0.2,0.1,0.3c0.1,0.2,0.2,0.4,0.2,0.6
	c0,0.1,0.1,0.1,0.1,0.2c0.1,0.2,0.2,0.4,0.2,0.6c0,0.1,0,0.1,0,0.2c0.1,0.2,0.2,0.4,0.2,0.6c0.1,0.2,0.1,0.4,0.2,0.6
	c0,0.2,0.1,0.3,0.1,0.5c0.1,0.2,0.1,0.4,0.2,0.6c0.1,0.4,0.3,0.7,0.5,1c0.4,0.5,0.9,1,1.5,1.4c0.5,0.3,1,0.6,1.5,0.9
	c0.2,0.1,0.4,0.2,0.6,0.4c0.3,0.3,0.7,0.5,1.1,0.6c0,0,0,0,0.1,0c0.1,0.1,0.3,0.1,0.4,0.1c0.1,0,0.2,0.1,0.4,0.1
	c0.1,0,0.2,0.1,0.3,0.1c0.1,0,0.2,0,0.4,0c0.4,0,0.7,0,1.1,0c0.4,0,0.8,0,1.3-0.1c0.1,0,0.2,0,0.3-0.1c0.1,0,0.3-0.1,0.4-0.1
	c0.1,0,0.2,0,0.2,0c0.1,0,0.2-0.1,0.3-0.1c0.1,0,0.2,0,0.3-0.1c0.1,0,0.2-0.1,0.3-0.1c0,0,0.1,0,0.1,0c0.1-0.1,0.2-0.1,0.3-0.1
	c0,0,0.1,0,0.1,0c0.2-0.1,0.5-0.2,0.7-0.4c0.2-0.1,0.5-0.3,0.7-0.4c0.3-0.2,0.5-0.4,0.8-0.6c0.2-0.1,0.4-0.3,0.6-0.4
	c0,0,0.1,0,0.1-0.1c0.1,0,0.2-0.1,0.3-0.1c0.1,0,0.2-0.1,0.3-0.1c0.2-0.1,0.4-0.1,0.6-0.2c0.2-0.1,0.3-0.2,0.5-0.2
	c0.1-0.1,0.3-0.2,0.4-0.3c0.5-0.4,0.9-0.8,1.3-1.3c0.2-0.3,0.4-0.5,0.5-0.8c0.1-0.2,0.2-0.5,0.3-0.7c0.1-0.2,0.2-0.4,0.2-0.7
	c0,0,0-0.1,0-0.1c0-0.1,0.1-0.2,0.1-0.3c0-0.1,0-0.1,0-0.2c0-0.2,0.1-0.3,0.1-0.5c0-0.2,0-0.5,0-0.7c0-0.6,0-1.3,0-1.9
	c0-0.2-0.1-0.4-0.1-0.6c0-0.2,0-0.5-0.1-0.7c0-0.1,0-0.3-0.1-0.4c-0.1-0.2-0.1-0.3-0.1-0.5c0-0.1,0-0.3,0-0.4c0-0.1-0.1-0.3-0.1-0.4
	c0-0.2,0-0.4-0.1-0.6c0-0.1,0-0.1-0.1-0.2c-0.1-0.2-0.1-0.4-0.2-0.6c-0.1-0.2-0.3-0.4-0.4-0.7c-0.1-0.2-0.3-0.4-0.5-0.6
	c-0.2-0.2-0.3-0.5-0.4-0.7c-0.1-0.1-0.1-0.2-0.2-0.3c-0.1-0.2-0.2-0.5-0.3-0.7c-0.1-0.1-0.2-0.3-0.2-0.4c-0.3-0.6-0.6-1.1-1.1-1.5
	c-0.3-0.2-0.7-0.4-1-0.6c-0.1-0.1-0.3-0.1-0.4-0.1c-0.3,0-0.5-0.1-0.7-0.2c-0.4-0.1-0.7,0-1.1-0.1c-0.2-0.1-0.5,0-0.7,0
	c-0.3,0-0.5,0-0.8,0c-0.4,0-0.8-0.1-1.2,0C59.8,11.7,59.5,11.7,59.1,11.8L59.1,11.8z M68.5,19c0,0.2,0.1,0.4,0.1,0.5
	c0,0.2,0.1,0.3,0.1,0.5c0,0.4,0,0.8,0.1,1.2c0,0.1,0,0.1,0,0.2c0,0.8,0,1.6,0,2.4c0,0.1,0,0.2-0.1,0.3c0,0.1,0,0.2,0,0.2
	c0,0.1,0,0.3-0.1,0.4c0,0,0,0.1,0,0.2c0,0.1,0,0.2-0.1,0.3c0,0,0,0.1,0,0.1c0,0.1,0,0.2-0.1,0.3c0,0,0,0,0,0c0,0.2-0.1,0.3-0.2,0.5
	c0,0,0,0,0,0c-0.1,0.1-0.2,0.3-0.2,0.4c-0.1,0.1-0.2,0.3-0.2,0.4c-0.1,0.2-0.2,0.4-0.4,0.6c-0.2,0.2-0.3,0.4-0.5,0.6
	c-0.2,0.2-0.4,0.4-0.6,0.5c-0.2,0.2-0.4,0.3-0.7,0.5c-0.1,0.1-0.3,0.1-0.4,0.2c-0.2,0.1-0.4,0.3-0.6,0.5c-0.2,0.2-0.5,0.3-0.7,0.5
	c-0.1,0.1-0.2,0.2-0.4,0.2c0,0-0.1,0-0.1,0c-0.1,0-0.1,0.1-0.2,0.1c0,0,0,0,0,0c-0.2,0-0.4,0.2-0.6,0.2c0,0-0.1,0-0.1,0
	C62.3,31,62.2,31,62,31c-0.1,0-0.2,0.1-0.3,0.1c-0.1,0-0.2,0-0.2,0c-0.3,0-0.5,0-0.8,0c-0.2,0-0.4,0.1-0.7,0.1c-0.3,0-0.7,0-1,0
	c-0.1,0-0.3,0-0.4,0c-0.2,0-0.4,0-0.6,0c-0.2,0-0.4,0-0.6,0c-0.2,0-0.4,0-0.5-0.1c0,0-0.1,0-0.1,0c-0.2,0-0.4-0.1-0.6-0.2
	c-0.1,0-0.2-0.1-0.3-0.2c-0.3-0.1-0.6-0.3-0.8-0.4c-0.2-0.1-0.4-0.2-0.6-0.3c-0.2-0.1-0.4-0.2-0.6-0.3c-0.4-0.3-0.7-0.6-1-0.9
	c-0.3-0.3-0.5-0.6-0.7-1c-0.1-0.2-0.2-0.4-0.3-0.6c-0.1-0.1-0.1-0.2-0.2-0.4c-0.1-0.2-0.2-0.4-0.3-0.6c-0.1-0.2-0.2-0.4-0.3-0.6
	c0-0.1-0.1-0.2-0.1-0.3c-0.1-0.3-0.2-0.5-0.2-0.8c0-0.1,0-0.2-0.1-0.3c0-0.2-0.1-0.4-0.1-0.6c0-0.4,0-0.9,0.1-1.3
	c0-0.3,0.1-0.5,0.1-0.8c0-0.1,0.1-0.2,0.1-0.4c0-0.1,0.1-0.3,0.1-0.4c0-0.2,0.2-0.4,0.2-0.7c0-0.2,0.2-0.4,0.2-0.6c0,0,0,0,0,0
	c0.1-0.2,0.1-0.4,0.2-0.6c0-0.1,0.1-0.2,0.1-0.3c0-0.1,0.1-0.3,0.1-0.4c0.1-0.2,0.2-0.4,0.2-0.6c0.1-0.1,0.2-0.3,0.3-0.4
	c0.2-0.2,0.3-0.3,0.5-0.5c0.3-0.3,0.5-0.6,0.8-0.9c0.4-0.6,0.8-1.1,1.3-1.5c0.2-0.1,0.5-0.2,0.7-0.4c0.2-0.1,0.4-0.1,0.6-0.2
	c0.2-0.1,0.3-0.1,0.5-0.1c0,0,0.1,0,0.1,0c0.1,0,0.3-0.1,0.4-0.1c0.2-0.1,0.5-0.2,0.7-0.2c0.1,0,0.2,0,0.2-0.1
	c0.1,0,0.2-0.1,0.3-0.1c0.1,0,0.2,0,0.3-0.1c0.1,0,0.3,0,0.4-0.1c0,0,0.1,0,0.1,0c0.2,0,0.4,0,0.6,0c0.4,0,0.7,0,1.1,0
	c0.2,0,0.4,0,0.6,0.1c0.1,0.1,0.3,0,0.4,0c0.2,0,0.4,0,0.5,0.1c0,0,0.1,0,0.1,0c0.3,0,0.6,0.1,0.9,0.2c0.1,0,0.1,0,0.2,0.1
	c0,0,0,0,0,0c0.2,0.1,0.4,0.1,0.6,0.2c0.2,0.1,0.3,0.1,0.5,0.2c0.2,0.1,0.3,0.2,0.5,0.3c0.2,0.1,0.4,0.3,0.6,0.4
	c0.2,0.2,0.5,0.4,0.7,0.6c0.1,0.1,0.3,0.3,0.4,0.5c0.1,0.2,0.2,0.3,0.3,0.5c0.1,0.1,0.1,0.3,0.2,0.4c0.1,0.3,0.2,0.5,0.4,0.8
	c0.1,0.2,0.2,0.4,0.3,0.6c0.1,0.2,0.2,0.3,0.2,0.5c0,0,0,0.1,0,0.1C68.6,18.6,68.5,18.8,68.5,19L68.5,19z M50.7,23.3
	C50.7,23.3,50.7,23.3,50.7,23.3c0,0.2,0,0.4,0,0.6c0,0.1,0,0.2,0,0.3c0.1,0.3,0.2,0.6,0.2,0.8c0.1,0.2,0.1,0.4,0.2,0.6
	c0,0.1,0.1,0.1,0.1,0.2c0.1,0.2,0.1,0.4,0.2,0.6c0,0.1,0.1,0.2,0.1,0.3c0.1,0.3,0.3,0.6,0.4,0.9c0.1,0.2,0.2,0.3,0.3,0.5
	c0.2,0.4,0.5,0.7,0.8,1c0.3,0.3,0.6,0.5,1,0.7c0.3,0.2,0.6,0.3,1,0.5c0.1,0.1,0.2,0.1,0.3,0.2c0.2,0.1,0.3,0.1,0.5,0.2
	c0.2,0.1,0.5,0.3,0.8,0.3c0,0,0.1,0,0.1,0c0.2,0.1,0.4,0.1,0.6,0.1c0.1,0,0.3,0,0.4,0c0.3,0,0.5,0.1,0.8,0.1c0.3,0,0.7-0.1,1-0.1
	c0.3,0,0.5,0,0.8-0.1c0.4-0.1,0.7-0.1,1.1-0.1c0,0,0.1,0,0.1,0c0.2-0.1,0.3-0.1,0.5-0.2c0.1,0,0.3-0.1,0.4-0.2
	c0.2-0.1,0.3-0.1,0.5-0.2c0.2-0.1,0.4-0.2,0.6-0.3c0.3-0.2,0.5-0.3,0.7-0.5c0.3-0.3,0.7-0.5,1.1-0.7c0.3-0.2,0.7-0.5,1-0.7
	c0.5-0.4,0.8-0.9,1.1-1.5c0.1-0.2,0.2-0.4,0.3-0.6c0.1-0.2,0.1-0.4,0.2-0.6c0.1-0.3,0.3-0.5,0.3-0.9c0,0,0,0,0,0
	c0.1-0.1,0.1-0.2,0.1-0.4c0-0.1,0-0.2,0.1-0.2c0-0.1,0.1-0.2,0.1-0.3c0-0.3,0-0.6,0-0.9c0-0.5,0-1.1,0-1.6c0-0.1,0-0.2,0-0.3
	c-0.1-0.3-0.1-0.7-0.1-1c0-0.2,0-0.3,0-0.5c0-0.1-0.1-0.3-0.1-0.4c0-0.3-0.1-0.6-0.2-0.9c0-0.1-0.1-0.2-0.1-0.3
	c-0.1-0.3-0.3-0.5-0.4-0.8c0-0.1-0.1-0.2-0.1-0.2c-0.1-0.2-0.1-0.3-0.2-0.5c-0.2-0.3-0.3-0.6-0.5-0.9c-0.1-0.2-0.3-0.4-0.5-0.6
	c-0.2-0.2-0.5-0.4-0.7-0.5c-0.3-0.2-0.5-0.3-0.8-0.4c-0.1-0.1-0.3-0.1-0.4-0.2c-0.1,0-0.1-0.1-0.2-0.1c-0.2-0.1-0.5-0.1-0.7-0.2
	c0,0,0,0,0,0c-0.1-0.1-0.3-0.1-0.5-0.1c-0.1,0-0.1,0-0.2,0c-0.2,0-0.4-0.1-0.6-0.1c-0.2,0-0.3-0.1-0.5-0.1c0,0-0.1,0-0.1,0
	c-0.2,0-0.5,0-0.7,0c-0.5,0-0.9,0-1.4,0c0,0-0.1,0-0.1,0c-0.1,0.1-0.3,0.1-0.5,0.1c-0.1,0-0.1,0-0.2,0.1c-0.1,0-0.1,0.1-0.2,0.1
	c-0.1,0-0.2,0-0.2,0.1c-0.1,0.1-0.2,0.1-0.3,0.1c-0.1,0-0.2,0.1-0.3,0.1c-0.1,0-0.2,0-0.3,0.1c-0.1,0-0.2,0-0.2,0
	c-0.1,0.1-0.3,0.1-0.5,0.1c-0.1,0-0.2,0-0.3,0.1c0,0-0.1,0-0.1,0c-0.2,0-0.4,0.1-0.6,0.2c-0.2,0.1-0.5,0.3-0.7,0.5
	c-0.2,0.2-0.4,0.4-0.6,0.7c-0.2,0.3-0.4,0.6-0.6,0.9c-0.2,0.2-0.4,0.5-0.6,0.7c-0.3,0.3-0.7,0.6-0.8,1c0,0,0,0.1-0.1,0.1
	c0,0,0,0.1-0.1,0.2c0,0.1,0,0.2-0.1,0.3c0,0.1-0.1,0.2-0.1,0.3c0,0.1,0,0.2-0.1,0.3c0,0,0,0.1,0,0.1c-0.1,0.2-0.1,0.5-0.2,0.7
	c0,0,0,0.1-0.1,0.1c0,0,0,0,0,0.1c0,0.1-0.1,0.3-0.1,0.4c-0.1,0.2-0.1,0.4-0.2,0.6c0,0.1,0,0.1,0,0.2c0,0.1,0,0.1,0,0.2
	c-0.1,0.1-0.1,0.3-0.1,0.4c0,0.1-0.1,0.3-0.1,0.4c0,0,0,0.1,0,0.1C50.8,22.6,50.8,22.9,50.7,23.3L50.7,23.3z M67.8,22
	c0,0.1,0,0.3,0,0.4c0,0.1,0,0.2-0.1,0.3c0,0,0,0.2,0,0.2c0,0.1,0,0.2-0.1,0.4c0,0.1,0,0.2-0.1,0.3c0,0.1-0.1,0.1-0.1,0.2
	c0,0,0,0.1,0,0.1c0,0.1,0,0.3-0.1,0.4c0,0,0,0.1,0,0.1c0,0.1-0.1,0.2-0.1,0.3c0,0,0,0,0,0c0,0.2-0.2,0.4-0.2,0.6c0,0,0,0,0,0
	c-0.1,0.2-0.2,0.3-0.2,0.5c0,0,0,0.1,0,0.1c0,0.1-0.1,0.2-0.1,0.3c0,0,0,0,0,0c0,0.3-0.2,0.5-0.3,0.7c-0.3,0.4-0.5,0.8-0.9,1.2
	c-0.3,0.2-0.5,0.5-0.8,0.7c0,0-0.1,0.1-0.1,0.1c-0.2,0.2-0.5,0.3-0.7,0.5c0,0-0.1,0-0.1,0c-0.1,0-0.1,0-0.2,0.1
	c0,0.1-0.2,0.1-0.2,0.1c0,0-0.1,0-0.1,0c-0.2,0.2-0.4,0.1-0.6,0.1c-0.1,0-0.2,0.1-0.4,0.1c-0.4,0-0.8,0-1.3-0.1
	c-0.2-0.1-0.4-0.1-0.6,0c-0.1,0.1-0.3,0-0.5,0.1c-0.1,0-0.2,0.1-0.3,0.1c-0.1,0-0.2,0.1-0.3,0.1c-0.5,0-1.1,0-1.6,0c0,0,0,0,0,0
	c-0.3-0.1-0.6-0.1-0.9-0.3c0,0-0.1,0-0.1,0c-0.1,0-0.3,0-0.4-0.1c-0.1,0-0.2,0-0.2-0.1c-0.2-0.1-0.4-0.2-0.6-0.3
	c-0.2-0.1-0.4-0.2-0.5-0.3c-0.2-0.1-0.4-0.3-0.6-0.5c-0.2-0.2-0.4-0.3-0.6-0.5c-0.1-0.1-0.2-0.3-0.3-0.4c-0.2-0.3-0.4-0.6-0.5-0.8
	c-0.1-0.2-0.3-0.4-0.4-0.7c-0.1-0.2-0.2-0.3-0.2-0.5c-0.1-0.2-0.1-0.4-0.2-0.6c-0.2-0.3-0.1-0.6-0.1-0.9c0-0.4,0-0.9,0-1.3
	c0-0.1,0.1-0.2,0.1-0.3c0-0.2,0-0.3,0.1-0.5c0-0.3,0.2-0.6,0.1-0.9c0-0.2,0-0.4,0.1-0.7c0-0.1,0-0.2,0-0.3c0-0.1,0.1-0.2,0.1-0.2
	c0-0.1,0-0.1,0-0.2c0-0.1,0-0.1,0.1-0.2c0,0,0-0.1,0.1-0.1c0.3-0.6,0.7-1.1,1.1-1.6c0.3-0.4,0.7-0.7,1-1.1c0.2-0.3,0.5-0.6,0.7-0.9
	c0.2-0.2,0.4-0.4,0.6-0.6c0.1-0.1,0.3-0.2,0.5-0.2c0.1,0,0.1,0,0.2-0.1c0.1,0,0.3,0,0.4-0.1c0.1,0,0.1-0.1,0.2-0.1c0,0,0.1,0,0.1,0
	c0.3-0.1,0.6-0.3,0.8-0.4c0,0,0.1,0,0.1-0.1c0.1,0,0.1-0.1,0.2-0.1c0,0,0,0,0,0c0.2-0.1,0.4-0.2,0.6-0.2c0.5,0,1.1,0,1.6,0
	c0.1,0,0.1,0,0.2,0.1c0.2,0.1,0.4,0.1,0.6,0.1c0.1,0,0.1,0,0.2,0c0.1,0.1,0.2,0.1,0.3,0.1c0.1,0,0.3,0,0.4,0.1c0,0,0.1,0,0.2,0
	c0.1,0,0.2,0.1,0.3,0.1c0,0,0,0,0.1,0c0.3,0.1,0.7,0.2,1,0.4c0.3,0.2,0.7,0.4,1,0.6c0.3,0.2,0.5,0.3,0.8,0.5
	c0.3,0.2,0.5,0.4,0.7,0.6c0.2,0.2,0.4,0.4,0.6,0.6c0.1,0.1,0.2,0.3,0.2,0.4c0,0,0,0.1,0,0.1c0.1,0.1,0.1,0.2,0.1,0.3
	c0,0,0,0.1,0,0.1c0.1,0.1,0.1,0.3,0.1,0.4c0,0.2,0.1,0.5,0.1,0.7c0,0.3,0,0.7,0,1c0,0.3,0,0.6,0,0.9c0,0.1,0,0.1,0,0.2
	c0.1,0.2,0.1,0.5,0.1,0.7C67.8,21.9,67.8,21.9,67.8,22L67.8,22L67.8,22z M67.5,20.2C67.5,20.2,67.5,20.2,67.5,20.2
	c0-0.2,0-0.4,0-0.6c0-0.3,0-0.5-0.1-0.8c0-0.1,0-0.1,0-0.2c0-0.2,0-0.4-0.1-0.6c0,0,0,0,0,0c-0.1-0.3-0.3-0.6-0.5-0.9
	c-0.4-0.4-0.8-0.7-1.3-1c-0.2-0.1-0.4-0.3-0.6-0.4c-0.2-0.1-0.5-0.3-0.7-0.4c-0.1-0.1-0.3-0.1-0.4-0.2c-0.2-0.1-0.4-0.2-0.6-0.2
	c-0.2-0.1-0.5-0.2-0.7-0.2c0,0,0,0-0.1,0c-0.1,0-0.2-0.1-0.3-0.1c-0.1,0-0.2,0-0.3-0.1c-0.1-0.1-0.3-0.1-0.4-0.1c-0.1,0-0.2,0-0.2,0
	c-0.2-0.1-0.4-0.1-0.6-0.1c-0.5,0-0.9,0-1.4,0c-0.1,0-0.2,0.1-0.4,0.1c-0.1,0.1-0.3,0.1-0.4,0.2c0,0,0,0-0.1,0c0,0-0.1,0-0.1,0
	c-0.3,0.2-0.6,0.4-0.9,0.5c0,0,0,0,0,0C57,15,57,15,56.9,15c-0.1,0-0.1,0-0.2,0c-0.1,0-0.2,0.1-0.4,0.1c-0.2,0-0.4,0.1-0.5,0.2
	c-0.2,0.1-0.3,0.3-0.4,0.4c-0.2,0.2-0.4,0.5-0.6,0.8c-0.2,0.3-0.5,0.5-0.7,0.8c-0.1,0.1-0.3,0.3-0.4,0.4c-0.2,0.3-0.5,0.6-0.7,0.9
	c-0.1,0.2-0.2,0.4-0.3,0.5c-0.1,0.2-0.2,0.3-0.2,0.5c0,0,0,0,0,0c-0.1,0.1-0.1,0.3-0.1,0.4c0,0.1,0,0.1,0,0.2
	c-0.1,0.2-0.1,0.4-0.1,0.6c0,0.1,0,0.2,0,0.3c0,0.1,0,0.2,0,0.3C52,21.6,52,21.8,52,21.9c0,0.2,0,0.3-0.1,0.5
	c-0.1,0.1-0.1,0.3-0.1,0.4c0,0.4-0.1,0.8,0,1.2c0.1,0.3,0,0.6,0.2,0.8c0,0,0,0.1,0,0.1c0,0.1,0,0.1,0,0.2c0.1,0.2,0.2,0.4,0.3,0.6
	c0.1,0.2,0.2,0.5,0.4,0.7c0.2,0.3,0.4,0.6,0.6,1c0.1,0.1,0.1,0.2,0.2,0.3c0.3,0.4,0.8,0.8,1.2,1.1c0.2,0.1,0.4,0.3,0.7,0.4
	c0.1,0.1,0.2,0.1,0.3,0.2c0.2,0.1,0.3,0.2,0.5,0.2c0,0,0.1,0,0.1,0c0.1,0,0.2,0.1,0.3,0.1c0,0,0.1,0,0.1,0c0.1,0,0.3,0,0.4,0.1
	c0.2,0.1,0.3,0.1,0.5,0.1c0.5,0,0.9,0,1.4,0c0.1,0,0.3-0.1,0.4-0.1c0.1,0,0.3-0.1,0.4-0.1c0.1,0,0.3,0,0.4-0.1c0.1,0,0.3-0.1,0.4,0
	c0.2,0,0.4,0.1,0.7,0.1c0.4,0,0.8,0.1,1.1-0.1c0.3,0,0.6-0.1,0.8-0.2c0.2,0,0.3-0.1,0.4-0.2c0.1-0.1,0.2-0.1,0.3-0.2
	c0.1-0.1,0.3-0.2,0.4-0.3c0.2-0.2,0.4-0.4,0.6-0.6c0.3-0.3,0.6-0.6,0.8-1c0.2-0.3,0.3-0.6,0.5-0.9c0.1-0.3,0.3-0.5,0.4-0.8
	c0,0,0,0,0-0.1c0.1-0.2,0.1-0.4,0.2-0.6c0,0,0,0,0,0c0.1-0.2,0.2-0.4,0.2-0.6c0.1-0.3,0.2-0.5,0.2-0.8c0,0,0-0.1,0.1-0.1
	c0,0,0-0.1,0.1-0.1c0-0.2,0.1-0.4,0.1-0.6c0-0.4,0-0.7,0-1.1c0-0.1-0.1-0.2-0.1-0.4C67.5,20.8,67.5,20.5,67.5,20.2L67.5,20.2z
	 M66.5,20.4c0,0.5,0,1.1,0,1.6c0,0.3,0,0.6-0.1,0.9c-0.1,0.1,0,0.3,0,0.5c0,0.1-0.1,0.2-0.1,0.3c0,0,0,0.1,0,0.1
	c0,0.1,0,0.3-0.1,0.4c0,0,0,0,0,0c0,0.2-0.2,0.4-0.2,0.6c0,0.1-0.1,0.1-0.1,0.1c0,0,0,0,0,0.1c0,0.1-0.1,0.2-0.1,0.3
	c-0.2,0.3-0.4,0.6-0.6,0.9c-0.3,0.4-0.5,0.7-0.8,1c-0.3,0.3-0.6,0.6-1,0.8c-0.2,0.1-0.4,0.2-0.6,0.3c-0.1,0.1-0.3,0.2-0.4,0.2
	c0,0-0.1,0-0.1,0c-0.1,0-0.2,0-0.3,0.1c-0.1,0.1-0.3,0-0.4,0.1c-0.1,0-0.1,0-0.2,0c-0.2,0.1-0.5,0.1-0.8,0.1c-0.2,0-0.4,0-0.6,0
	c-0.1,0-0.3,0.1-0.4,0.1c-0.3,0-0.6,0-0.9,0c-0.4,0-0.8,0-1.2,0c-0.1,0-0.1,0-0.2,0C57.1,29,57,29,56.8,28.9
	c-0.2-0.1-0.4-0.2-0.6-0.2c-0.1-0.1-0.2-0.1-0.3-0.2c-0.6-0.4-1.1-0.8-1.5-1.4c-0.2-0.2-0.4-0.5-0.5-0.7c-0.2-0.2-0.3-0.5-0.4-0.8
	c-0.1-0.2-0.2-0.3-0.2-0.5c0-0.1,0-0.1-0.1-0.2c0-0.1,0-0.1,0-0.2c-0.1-0.1-0.1-0.3-0.1-0.4c0-0.2-0.1-0.5-0.1-0.7c0-0.3,0-0.7,0-1
	c0-0.1,0.1-0.2,0.1-0.3c0-0.3,0.1-0.5,0.1-0.8c0-0.1,0-0.1,0.1-0.2c0-0.1,0-0.2,0.1-0.4c0-0.2,0.1-0.3,0.1-0.5c0-0.1,0-0.3,0.1-0.4
	c0,0,0-0.1,0-0.1c0.1-0.2,0.2-0.4,0.3-0.6c0.2-0.3,0.4-0.6,0.6-0.8c0.2-0.3,0.4-0.5,0.6-0.7c0.1-0.2,0.2-0.3,0.3-0.5
	c0.1-0.2,0.3-0.3,0.5-0.4c0.2-0.1,0.4-0.2,0.6-0.2c0.1,0,0.3-0.1,0.4-0.2c0.4-0.2,0.7-0.5,1.1-0.8c0.2-0.1,0.4-0.2,0.6-0.3
	c0.4-0.2,0.8-0.2,1.2-0.3c0,0,0.1,0,0.1,0c0.6,0,1.2,0,1.8,0c0.1,0,0.1,0,0.2,0c0.2,0.1,0.4,0.1,0.5,0.1c0,0,0.1,0,0.1,0
	c0.1,0.1,0.2,0.1,0.4,0.1c0.1,0,0.1,0,0.2,0.1c0.1,0,0.1,0,0.2,0.1c0.1,0,0.1,0.1,0.2,0.1c0.3,0.1,0.5,0.3,0.8,0.4
	c0.3,0.2,0.6,0.3,0.8,0.5c0.2,0.2,0.5,0.4,0.7,0.6c0.2,0.2,0.4,0.5,0.6,0.8c0.1,0.1,0.2,0.3,0.2,0.5c0.1,0.2,0.2,0.4,0.2,0.7
	c0,0.2,0,0.3,0,0.5C66.5,19.9,66.5,20.2,66.5,20.4C66.5,20.4,66.5,20.4,66.5,20.4L66.5,20.4z M66.4,21.8L66.4,21.8c0-0.3,0-0.7,0-1
	c0-0.4,0-0.8-0.1-1.2c0-0.2,0-0.4-0.1-0.5c0-0.2-0.1-0.3-0.2-0.5c-0.2-0.3-0.3-0.6-0.5-0.9c-0.4-0.5-0.8-0.9-1.4-1.3
	c-0.3-0.2-0.7-0.4-1-0.6c-0.1-0.1-0.2-0.1-0.4-0.2c-0.2-0.1-0.4-0.2-0.7-0.2c0,0,0,0,0,0c-0.2,0-0.3-0.1-0.5-0.1c-0.1,0-0.1,0-0.2,0
	c-0.7,0-1.5,0-2.2,0c0,0-0.1,0-0.1,0c-0.1,0-0.2,0.1-0.3,0.1c-0.1,0-0.3,0-0.3,0.1c0,0-0.1,0-0.1,0c-0.1,0-0.1,0-0.2,0.1
	c-0.1,0.1-0.3,0.2-0.4,0.3c-0.2,0.1-0.4,0.3-0.6,0.4c-0.2,0.1-0.3,0.2-0.5,0.3c-0.1,0.1-0.2,0.1-0.3,0.1c-0.2,0-0.3,0-0.5,0.2
	c0,0,0,0-0.1,0c-0.2,0-0.4,0.1-0.5,0.3c-0.2,0.2-0.4,0.5-0.5,0.7c-0.3,0.3-0.5,0.6-0.8,1c-0.2,0.2-0.4,0.5-0.4,0.8c0,0,0,0,0,0.1
	c-0.1,0.1-0.1,0.1-0.1,0.2c0,0.1,0,0.1,0,0.2c-0.1,0.3-0.1,0.5-0.1,0.8c0,0.1-0.1,0.2-0.1,0.3c0,0,0,0.1,0,0.1c0,0.2,0,0.5-0.1,0.7
	c0,0.1-0.1,0.3-0.1,0.4c0,0.3,0,0.6,0,0.8c0,0.1,0,0.3,0,0.4c0,0.2,0.1,0.4,0.1,0.6c0,0.1,0,0.2,0,0.3c0.1,0.2,0.2,0.4,0.2,0.6
	c0.1,0.4,0.3,0.7,0.5,1c0.2,0.3,0.4,0.6,0.6,0.8c0.2,0.3,0.5,0.6,0.8,0.8c0.2,0.1,0.4,0.2,0.5,0.3c0.3,0.2,0.6,0.3,0.9,0.4
	c0.1,0,0.2,0.1,0.3,0.1c0,0,0.1,0,0.1,0c0.1,0,0.3,0,0.4,0c0.5,0,0.9,0,1.4,0c0.3,0,0.6,0,0.8-0.1c0,0,0.1,0,0.1,0
	c0.5-0.1,1,0,1.5-0.1c0.3-0.1,0.5-0.2,0.8-0.2c0.2-0.1,0.4-0.2,0.6-0.3c0.2-0.1,0.5-0.3,0.7-0.5c0.2-0.2,0.4-0.4,0.6-0.5
	c0.3-0.3,0.6-0.7,0.9-1.1c0.2-0.3,0.5-0.7,0.6-1.1c0.1-0.3,0.3-0.6,0.4-0.9c0.1-0.2,0-0.4,0.2-0.5c0,0,0,0,0,0
	c0-0.3,0.1-0.6,0.1-0.8C66.4,22.4,66.4,22.1,66.4,21.8L66.4,21.8z M60.7,16.3c0.3,0,0.5,0,0.8,0c0.1,0,0.1,0,0.2,0.1
	c0,0,0.1,0,0.1,0c0.3,0.1,0.6,0.2,0.9,0.3c0.2,0.1,0.5,0.2,0.7,0.4c0.2,0.1,0.3,0.2,0.4,0.4c0.3,0.3,0.6,0.6,0.9,1
	c0.2,0.2,0.3,0.5,0.4,0.8c0.1,0.2,0.1,0.5,0.2,0.8c0,0.1,0,0.2,0,0.3c0,0.5,0,1.1,0,1.6c0,0.4,0,0.7,0,1.1c0,0.2,0,0.3-0.1,0.5
	c0,0.1,0,0.2,0,0.3s0,0.2-0.1,0.3c0,0,0,0,0,0c0,0.2-0.2,0.4-0.2,0.6c0,0.1-0.1,0.2-0.2,0.3c-0.1,0.1-0.1,0.2-0.2,0.3
	c-0.2,0.3-0.5,0.6-0.8,0.9c-0.2,0.2-0.4,0.4-0.7,0.6c-0.2,0.2-0.5,0.3-0.7,0.5c-0.1,0.1-0.3,0.1-0.5,0.2c-0.1,0.1-0.4,0.1-0.5,0.2
	c0,0-0.1,0-0.1,0c-0.1,0-0.2,0.1-0.2,0.1c0,0,0,0,0,0c-0.3,0-0.5,0.2-0.8,0.2c0,0-0.1,0-0.1,0c-0.1,0.1-0.2,0.1-0.3,0.1
	c-0.8,0-1.6,0-2.3,0c0,0-0.1,0-0.1,0c-0.5-0.2-1-0.5-1.4-0.9c-0.2-0.2-0.3-0.4-0.5-0.6c-0.2-0.3-0.4-0.5-0.5-0.8
	c-0.1-0.2-0.2-0.3-0.3-0.5c-0.1-0.2-0.1-0.4-0.2-0.6c-0.1-0.3-0.2-0.5-0.2-0.8c0-0.1,0-0.2,0-0.3c0-0.1,0-0.2,0-0.2
	c-0.1-0.2-0.1-0.4-0.1-0.6c0-0.2,0-0.4,0.1-0.6c0.1-0.2,0-0.4,0.1-0.5c0.2-0.4,0.1-0.8,0.3-1.2c0,0,0-0.1,0-0.1
	c-0.1-0.2,0.1-0.4,0.2-0.6c0.3-0.5,0.7-0.9,1.1-1.4c0.3-0.3,0.6-0.6,1-0.8c0.3-0.2,0.5-0.3,0.8-0.5c0.2-0.1,0.4-0.1,0.6-0.2
	c0,0,0.1,0,0.1,0c0.1-0.1,0.3-0.1,0.4-0.1c0.1,0,0.1,0,0.2-0.1c0.1,0,0.2-0.1,0.3-0.1c0.1,0,0.2,0,0.2-0.1c0.1,0,0.1,0,0.2-0.1
	c0.1,0,0.2-0.1,0.4-0.1c0.2,0,0.3,0,0.5-0.1C60.5,16.3,60.6,16.3,60.7,16.3C60.7,16.3,60.7,16.3,60.7,16.3L60.7,16.3z M60.7,16.4
	C60.7,16.4,60.7,16.4,60.7,16.4c-0.3,0-0.7-0.1-1,0.1c0,0,0,0,0,0c-0.3,0.1-0.5,0.1-0.8,0.2c-0.1,0-0.2,0.1-0.2,0.1
	c-0.2,0-0.4,0-0.5,0.2c-0.2,0-0.3,0.1-0.5,0.2c-0.2,0.1-0.4,0.2-0.6,0.3c-0.2,0.1-0.4,0.3-0.6,0.5c-0.2,0.2-0.4,0.4-0.6,0.6
	c-0.1,0.1-0.2,0.2-0.3,0.4c-0.2,0.2-0.3,0.4-0.5,0.6c-0.1,0.1-0.1,0.3-0.2,0.4c-0.1,0.1-0.1,0.2-0.1,0.3c0,0,0,0,0,0.1
	c-0.1,0.3-0.2,0.7-0.1,1c0,0,0,0.1,0,0.2c-0.1,0.1-0.1,0.2-0.1,0.3c0,0.1-0.1,0.3-0.1,0.4c0,0.1-0.1,0.2-0.1,0.3c0,0.3,0,0.5,0,0.8
	c0,0,0,0.1,0,0.1c0,0.1,0.1,0.3,0.1,0.4c0,0.1,0,0.2,0,0.2c0.1,0.2,0.2,0.5,0.2,0.7c0.1,0.3,0.2,0.7,0.4,1c0.2,0.5,0.6,0.9,0.9,1.3
	c0.3,0.3,0.5,0.6,0.9,0.8c0.1,0.1,0.2,0.1,0.3,0.2c0.2,0.1,0.3,0.1,0.5,0.1c0.5,0,0.9,0,1.4,0c0.2,0,0.4,0,0.7,0
	c0.1,0,0.2,0,0.3-0.1c0.1,0,0.2-0.1,0.3-0.1c0.1,0,0.2-0.1,0.3-0.1c0,0,0.1,0,0.1-0.1c0.1,0,0.2-0.1,0.3-0.1c0.1,0,0.1,0,0.2-0.1
	c0.1-0.1,0.3-0.1,0.4-0.2c0.3-0.2,0.7-0.4,1-0.6c0.2-0.1,0.3-0.2,0.5-0.3c0.1-0.1,0.2-0.2,0.3-0.3c0.3-0.3,0.6-0.6,0.8-0.9
	c0.2-0.3,0.4-0.7,0.5-1.1c0,0,0,0,0-0.1c0-0.1,0.1-0.2,0.1-0.4c0-0.1,0-0.2,0.1-0.3c0-0.1,0.1-0.2,0.1-0.4c0-1,0-2,0-2.9
	c0,0,0-0.1,0-0.1c-0.1-0.3-0.1-0.5-0.2-0.8c0,0,0,0,0-0.1c-0.1-0.2-0.1-0.3-0.2-0.5c-0.2-0.3-0.5-0.7-0.7-1c-0.3-0.3-0.6-0.6-1-0.8
	c-0.1,0-0.2-0.1-0.3-0.1c-0.2-0.1-0.5-0.2-0.8-0.3c-0.1,0-0.1,0-0.2-0.1c-0.1,0-0.2-0.1-0.3-0.1C61.2,16.4,61,16.4,60.7,16.4
	L60.7,16.4z M58.8,27.2c-0.2,0-0.5,0-0.7,0c0,0-0.1,0-0.1,0c-0.1-0.1-0.3-0.1-0.4-0.1c-0.1,0-0.3-0.1-0.4-0.2
	c-0.4-0.3-0.8-0.7-1.1-1.1c-0.2-0.3-0.3-0.5-0.5-0.8c-0.1-0.1-0.1-0.3-0.1-0.4c-0.1-0.3-0.1-0.5-0.2-0.8c-0.1-0.4-0.1-0.7-0.1-1.1
	c0-0.1,0-0.2,0-0.3c0-0.2,0-0.3,0.1-0.5c0-0.1,0-0.1,0.1-0.2c0-0.1,0.1-0.2,0.1-0.3c0-0.1,0.1-0.2,0.1-0.3c0,0,0-0.1,0-0.1
	c0.1-0.2,0.1-0.5,0.2-0.7c0.1-0.2,0.1-0.3,0.2-0.5c0.2-0.3,0.4-0.6,0.7-0.9c0.2-0.2,0.4-0.3,0.6-0.4c0.1-0.1,0.2-0.1,0.3-0.2
	c0.2-0.1,0.4-0.2,0.6-0.3c0.2-0.1,0.5-0.1,0.7-0.2c0.1,0,0.1,0,0.2,0c0.1,0,0.2,0,0.3-0.1c0.1,0,0.2-0.1,0.3-0.1
	c0.4,0,0.7-0.1,1.1-0.1c0.1,0,0.1,0,0.2,0c0.2,0,0.4,0.1,0.5,0.1c0.1,0,0.3,0.1,0.4,0.1c0.2,0.1,0.4,0.1,0.6,0.2
	c0.2,0.1,0.5,0.2,0.7,0.4c0.2,0.2,0.5,0.5,0.7,0.7c0.1,0.1,0.2,0.3,0.2,0.4c0,0,0,0.1,0.1,0.1c0,0,0.1,0.1,0.1,0.1
	c0,0.3,0.2,0.5,0.2,0.9c0,0.4,0,0.8,0,1.3c0,0.4,0,0.8,0,1.2c0,0.1,0,0.2-0.1,0.3c0,0,0,0.1,0,0.1c0,0.1,0,0.2-0.1,0.3
	c0,0,0,0.1,0,0.1c0,0.1-0.1,0.2-0.1,0.2c0,0,0,0,0,0.1c-0.2,0.5-0.5,1-1,1.4c-0.2,0.2-0.5,0.4-0.8,0.7c-0.1,0.1-0.2,0.1-0.3,0.2
	c-0.1,0.1-0.3,0.2-0.4,0.3c-0.2,0.1-0.3,0.1-0.5,0.2c0,0-0.1,0-0.1,0c-0.1,0.1-0.2,0.1-0.3,0.1c-0.1,0-0.1,0.1-0.2,0.1
	c-0.1,0-0.2,0.1-0.3,0.1c-0.1,0-0.2,0-0.4,0.1c-0.1,0.1-0.2,0.1-0.3,0.1C59.2,27.2,59,27.2,58.8,27.2C58.8,27.2,58.8,27.2,58.8,27.2
	L58.8,27.2z M58.9,27.1C58.9,27.1,58.9,27.1,58.9,27.1c0.2,0,0.5,0,0.7,0c0.1,0,0.1,0,0.2,0c0.1,0,0.3-0.1,0.4-0.1c0,0,0.1,0,0.1,0
	c0.2-0.1,0.4-0.2,0.6-0.2c0.2-0.1,0.4-0.1,0.5-0.2c0.4-0.2,0.8-0.4,1.2-0.7c0.4-0.4,0.8-0.8,1.1-1.3c0.1-0.1,0.2-0.3,0.2-0.5
	c0.1-0.2,0.1-0.4,0.2-0.6c0-0.1,0-0.1,0.1-0.2c0,0,0.1-0.1,0.1-0.1c0-0.2,0.1-0.5,0.1-0.8c0-0.1,0-0.3,0-0.4c0-0.2,0-0.4,0-0.6
	c0-0.2,0-0.4,0-0.6c0-0.2,0-0.4-0.1-0.6c0-0.1,0-0.2-0.1-0.3c0,0,0,0,0-0.1c0-0.2-0.2-0.4-0.2-0.6c-0.2-0.4-0.5-0.7-0.8-0.9
	c-0.3-0.2-0.6-0.3-0.9-0.5c-0.2-0.1-0.5-0.2-0.7-0.2c0,0-0.1,0-0.1,0c-0.3-0.1-0.6-0.1-0.9-0.1c-0.1,0-0.2,0-0.3,0
	c-0.1,0-0.2,0.1-0.4,0.1c-0.2,0-0.3,0-0.4,0.1c0,0-0.1,0-0.1,0c-0.2,0-0.4,0-0.6,0.1c0,0,0,0-0.1,0c-0.1,0-0.3,0-0.4,0.1
	c0,0,0,0-0.1,0c-0.2,0-0.4,0.2-0.5,0.3c-0.1,0.1-0.2,0.1-0.4,0.2c-0.2,0.1-0.4,0.3-0.6,0.4c-0.2,0.2-0.3,0.4-0.4,0.5
	c-0.1,0.1-0.2,0.3-0.3,0.4c-0.1,0.1-0.1,0.3-0.1,0.5c0,0.2,0,0.4-0.2,0.6c0,0,0,0,0,0c0,0.2,0,0.4-0.2,0.5c0,0.3-0.1,0.6-0.2,0.9
	c0,0.3,0,0.6,0,0.8c0,0.1,0,0.2,0,0.2c0.1,0.2,0.1,0.4,0.1,0.6c0,0.2,0.1,0.4,0.2,0.6c0,0,0,0.1,0.1,0.1c0.1,0.2,0.2,0.5,0.3,0.7
	c0.3,0.4,0.7,0.8,1.1,1.1c0.1,0.1,0.3,0.1,0.4,0.2c0.1,0,0.2,0.1,0.3,0.1c0,0,0.1,0,0.1,0C58.3,27.1,58.6,27.1,58.9,27.1L58.9,27.1z
	 M56.1,23.5c0-0.3,0-0.5,0-0.7c0-0.1,0.1-0.2,0.1-0.3c0,0,0-0.1,0-0.2c0-0.2,0-0.4,0.1-0.6c0.1-0.2,0.1-0.4,0.2-0.6c0,0,0,0,0,0
	c0.2-0.2,0.2-0.5,0.2-0.8c0-0.1,0-0.2,0.1-0.3c0,0,0,0,0,0c0.1-0.3,0.4-0.5,0.6-0.7c0.2-0.1,0.3-0.2,0.5-0.3c0.1,0,0.1,0,0.2-0.1
	c0.1,0,0.1-0.1,0.2-0.1c0.1,0,0.1,0,0.2,0c0.1,0,0.2-0.1,0.4-0.1c0.1,0,0.1,0,0.2,0c0.2,0,0.4,0,0.5,0c0,0,0.1,0,0.1,0
	c0.2-0.1,0.3-0.1,0.5-0.1c0.4,0,0.8,0,1.2,0c0,0,0,0,0,0c0.2,0.1,0.4,0.1,0.6,0.1c0.2,0,0.3,0.1,0.5,0.2c0.2,0.1,0.4,0.2,0.6,0.4
	c0.2,0.2,0.5,0.4,0.5,0.7c0,0,0,0,0,0c0.1,0.1,0.1,0.2,0.1,0.3c0,0.1,0,0.1,0,0.2c0,0.2,0,0.3,0.1,0.5c0.1,0.2,0,0.4,0.1,0.6
	c0,0.2,0,0.3-0.1,0.5c0,0.1,0,0.2,0,0.3c0,0.1,0,0.3-0.1,0.4c0,0,0,0.1,0,0.2c0,0.1,0,0.2-0.1,0.3c0,0,0,0,0,0
	c0,0.2-0.1,0.3-0.1,0.4c0,0,0,0.1-0.1,0.1c0,0,0,0-0.1,0.1c-0.1,0.1-0.1,0.3-0.2,0.4c-0.1,0.2-0.3,0.4-0.5,0.6
	c-0.2,0.2-0.3,0.3-0.5,0.5c-0.1,0.1-0.2,0.1-0.2,0.2c-0.1,0.1-0.3,0.1-0.4,0.2c-0.1,0.1-0.3,0.1-0.4,0.2C60.7,26,60.6,26,60.5,26
	c0,0,0,0,0,0c-0.1,0.1-0.2,0.1-0.3,0.1c-0.1,0-0.2,0.1-0.3,0.1c-0.1,0-0.1,0-0.2,0c-0.1,0-0.3,0-0.4,0.1c0,0-0.1,0-0.2,0
	c-0.2,0-0.5,0-0.7,0c-0.2,0-0.4-0.1-0.5-0.2c-0.3-0.2-0.6-0.4-0.9-0.6c-0.3-0.2-0.5-0.5-0.7-0.8c0,0,0-0.1,0-0.1
	C56.2,24.3,56.1,23.8,56.1,23.5L56.1,23.5z M58.9,26.3c0.2,0,0.5-0.1,0.8-0.2c0.1,0,0.3-0.1,0.4-0.1c0.1,0,0.2,0,0.3-0.1
	c0,0,0,0,0.1,0c0.1,0,0.3,0,0.4-0.1c0.1,0,0.1,0,0.2-0.1c0.2-0.1,0.5-0.3,0.7-0.5c0.5-0.3,0.8-0.7,1.1-1.2c0.1-0.1,0.1-0.2,0.2-0.4
	c0-0.1,0-0.1,0.1-0.2c0,0,0-0.1,0-0.1c0.1-0.1,0.1-0.2,0.1-0.3c0-0.1,0-0.1,0.1-0.2c0.1-0.1,0.1-0.2,0.1-0.3c0-0.1,0.1-0.3,0.1-0.4
	c0,0,0-0.1,0-0.1c0-0.4,0.1-0.8-0.1-1.2c-0.1-0.2,0-0.4-0.1-0.6c0-0.1,0-0.1-0.1-0.2c0,0,0-0.1-0.1-0.1c-0.1-0.2-0.2-0.4-0.4-0.5
	c-0.2-0.1-0.4-0.3-0.6-0.4c-0.2-0.1-0.3-0.1-0.5-0.2c-0.1,0-0.2-0.1-0.3-0.1c0,0-0.1,0-0.1,0c-0.4,0-0.8,0-1.2,0c-0.2,0-0.4,0-0.6,0
	c-0.2,0.1-0.5,0.1-0.7,0.1c-0.1,0-0.1,0-0.2,0c-0.1,0.1-0.2,0.1-0.3,0.1c-0.1,0-0.1,0-0.2,0.1c-0.1,0.1-0.2,0.1-0.3,0.1
	c0,0-0.1,0-0.1,0c-0.1,0.1-0.3,0.2-0.4,0.3c-0.2,0.1-0.4,0.3-0.5,0.5c0,0,0,0,0,0.1c-0.1,0-0.1,0.1-0.1,0.2c0,0.1,0,0.1,0,0.2
	c0,0.3-0.1,0.5-0.2,0.8c0,0,0,0,0,0c0,0.1-0.1,0.1-0.1,0.2c0,0.1,0,0.1,0,0.2c-0.1,0.1-0.1,0.3-0.1,0.4c0,0.1,0,0.2-0.1,0.3
	c0,0.1-0.1,0.1-0.1,0.2c0,0.5,0,1,0,1.4c0,0.1,0,0.3,0.1,0.4c0,0,0,0,0,0.1c0,0.3,0.2,0.5,0.4,0.7c0.2,0.2,0.4,0.4,0.6,0.6
	c0.3,0.2,0.6,0.4,0.9,0.5C58.5,26.3,58.7,26.3,58.9,26.3L58.9,26.3z M59.4,25.4c-0.3,0-0.5,0-0.8,0c-0.1,0-0.2,0-0.2-0.1
	c0,0-0.1,0-0.1,0c-0.1,0-0.3-0.1-0.4-0.2c-0.2-0.1-0.3-0.2-0.4-0.3c-0.3-0.3-0.5-0.6-0.6-1c0-0.1-0.1-0.3-0.1-0.4
	c0-0.1,0-0.2,0.1-0.3c0-0.1,0-0.2,0-0.4c0-0.1,0.1-0.3,0.1-0.4c0-0.1,0-0.3,0.1-0.4c0,0,0-0.1,0-0.1c0.1-0.3,0-0.6,0-0.9
	c0-0.1,0-0.2,0.1-0.3c0,0,0-0.1,0-0.1c0-0.4,0.3-0.5,0.5-0.7c0,0,0,0,0,0c0.1-0.2,0.4-0.1,0.5-0.3c0.1-0.1,0.2,0,0.4-0.1
	c0.1,0,0.1,0,0.2-0.1c0.1,0,0.2-0.1,0.3-0.1c0.2,0,0.3,0,0.5-0.1c0.2-0.1,0.3-0.1,0.5-0.1c0.3,0,0.6,0,0.9,0c0.1,0,0.1,0,0.2,0.1
	c0,0,0,0,0.1,0c0.6,0.1,1,0.6,1.4,1.1c0.1,0.2,0.2,0.3,0.2,0.6c0,0,0,0.1,0,0.1c0.1,0.1,0.1,0.2,0.1,0.4c0,0.4,0,0.8,0,1.2
	c0,0.1,0,0.2-0.1,0.3c0,0,0,0,0,0c-0.1,0.3-0.3,0.5-0.4,0.8c-0.3,0.3-0.5,0.6-0.8,0.9c-0.2,0.1-0.3,0.3-0.6,0.4
	c-0.1,0-0.2,0.1-0.3,0.1c-0.2,0.1-0.3,0.1-0.5,0.2c-0.1,0.1-0.3,0.1-0.4,0.1C59.7,25.4,59.5,25.4,59.4,25.4
	C59.4,25.4,59.4,25.4,59.4,25.4L59.4,25.4z M59.3,25.2L59.3,25.2c0.2,0,0.4,0,0.6,0c0.1,0,0.3,0,0.4-0.1c0,0,0.1,0,0.1-0.1
	c0.2-0.1,0.3-0.1,0.5-0.2c0.2-0.1,0.4-0.3,0.6-0.4c0.5-0.5,1-1,1.3-1.6c0,0,0-0.1,0-0.1c0.1-0.4,0.1-0.8,0-1.3c0-0.1,0-0.3-0.1-0.4
	c-0.1-0.2-0.2-0.4-0.2-0.5c-0.1-0.1-0.1-0.3-0.2-0.4c-0.2-0.2-0.4-0.4-0.7-0.6c-0.2-0.1-0.4-0.2-0.7-0.3c-0.5,0-0.9,0-1.4,0
	c0,0-0.1,0-0.1,0c-0.1,0.1-0.3,0.1-0.4,0.1c-0.1,0-0.2,0-0.3,0.1c-0.1,0.1-0.2,0.1-0.4,0.1c-0.1,0-0.1,0-0.2,0
	c-0.2,0.1-0.4,0.2-0.5,0.3c-0.2,0.2-0.4,0.4-0.4,0.7c-0.1,0.3,0,0.6,0,0.9c0,0.3,0.1,0.6-0.1,0.8c0,0,0,0,0,0c0,0.1,0,0.3-0.1,0.4
	c0,0.1,0,0.2-0.1,0.2c-0.1,0.2-0.1,0.4-0.1,0.6c0,0.2,0.1,0.3,0.1,0.5c0,0,0,0.1,0.1,0.1c0.3,0.4,0.6,0.8,1.1,0.9c0,0,0.1,0,0.1,0
	c0.1,0,0.2,0.1,0.2,0.1C58.8,25.2,59.1,25.2,59.3,25.2L59.3,25.2z M59.9,24.4c0.1,0,0.3,0.1,0.4,0c0,0,0.1-0.1,0.1-0.1
	c0.2-0.1,0.4-0.2,0.5-0.3c0.2-0.1,0.4-0.3,0.5-0.4c0.1-0.1,0.2-0.2,0.3-0.3c0.1-0.1,0.2-0.2,0.2-0.4c0.1-0.2,0.1-0.4,0.2-0.6
	c0,0,0,0,0,0c0-0.3,0-0.5-0.1-0.8c-0.1-0.2-0.2-0.4-0.3-0.6c0,0,0-0.1,0-0.1c-0.1-0.1-0.2-0.3-0.3-0.4c-0.1-0.1-0.2-0.2-0.3-0.2
	c-0.2-0.1-0.4-0.2-0.7-0.2c0,0,0,0,0,0c-0.2,0-0.5-0.2-0.7-0.1C59.6,20,59.3,20,59,20.2c-0.3,0.1-0.5,0.3-0.7,0.5
	c-0.2,0.2-0.5,0.5-0.6,0.8c0,0.1-0.1,0.2-0.1,0.4c0,0,0,0.1,0,0.1c-0.2,0.3-0.1,0.6-0.1,0.9c0,0.2,0.1,0.4,0.1,0.6
	c0,0.1,0.1,0.2,0.2,0.4c0.1,0.1,0.2,0.2,0.3,0.3c0.2,0.2,0.5,0.4,0.8,0.5c0.3,0,0.5,0,0.8,0C59.8,24.5,59.8,24.5,59.9,24.4
	c-0.1,0-0.2,0-0.2,0c-0.2,0-0.4,0-0.6,0c-0.2,0-0.4-0.1-0.6-0.2c-0.2-0.1-0.3-0.3-0.4-0.4c-0.1-0.1-0.2-0.3-0.2-0.4
	c0-0.1,0-0.2-0.1-0.2c-0.1-0.4-0.2-0.8,0-1.2c0,0,0-0.1,0-0.1c0-0.1,0-0.2,0.1-0.3c0,0,0-0.1,0-0.1c0,0,0-0.1,0.1-0.1
	c0.1-0.1,0.2-0.3,0.3-0.4c0.1-0.1,0.3-0.3,0.4-0.4c0.1-0.1,0.2-0.1,0.3-0.2c0.1-0.1,0.2-0.1,0.3-0.1c0.1,0,0.2-0.1,0.2-0.1
	c0.1,0,0.1,0,0.2-0.1c0.1,0,0.3,0,0.4,0c0,0,0.1,0,0.1,0c0.1,0,0.2,0.1,0.3,0.1c0.2,0,0.4,0.1,0.5,0.2c0.2,0.1,0.3,0.2,0.4,0.5
	c0.1,0.1,0.1,0.3,0.2,0.4c0.1,0.2,0.2,0.4,0.2,0.5c0.1,0.4,0,0.8-0.1,1.1c-0.1,0.2-0.2,0.4-0.4,0.5c-0.1,0.2-0.3,0.3-0.5,0.4
	c-0.1,0.1-0.2,0.1-0.3,0.2c-0.2,0.1-0.4,0.2-0.6,0.3C60,24.3,60,24.3,59.9,24.4C59.9,24.4,59.9,24.4,59.9,24.4L59.9,24.4z
	 M61.4,21.5c-0.1-0.2-0.3-0.4-0.5-0.5c0,0,0,0-0.1,0c-0.2-0.1-0.4-0.2-0.6-0.2c-0.3,0-0.6-0.1-0.9,0.1c-0.1,0.1-0.3,0.1-0.4,0.2
	c-0.2,0.1-0.4,0.2-0.5,0.4c-0.1,0.1-0.2,0.3-0.3,0.4c0,0,0,0.1,0,0.1c0,0,0,0.1,0.1,0.1c0,0,0.1,0,0.1-0.1c0-0.1,0.1-0.2,0.2-0.3
	c0.1-0.1,0.2-0.3,0.4-0.4c0.1-0.1,0.2-0.2,0.4-0.2c0.1,0,0.1-0.1,0.2-0.1c0.3,0,0.5,0,0.8,0c0.2,0,0.4,0.2,0.6,0.2
	C61,21.2,61.2,21.4,61.4,21.5c-0.1,0.1,0,0.2,0,0.2c0,0.3,0,0.5,0,0.8c0,0,0,0.1,0,0.1c0,0.1-0.1,0.1-0.1,0.2
	c-0.1,0.2-0.3,0.4-0.5,0.5c-0.1,0.1-0.3,0-0.4,0.2c0,0,0,0,0,0c-0.2,0-0.4,0.1-0.6,0.1c-0.2,0-0.5,0-0.7,0c-0.2,0-0.3-0.2-0.4-0.3
	c-0.1-0.1-0.1-0.3-0.2-0.4c0-0.1-0.1-0.2-0.1-0.3c0,0-0.1,0-0.1-0.1c0,0,0,0.1,0,0.1c0,0.1,0.1,0.2,0.1,0.2c0.1,0.1,0.1,0.2,0.2,0.3
	c0.1,0.3,0.3,0.5,0.6,0.6c0.2,0,0.3,0,0.5,0c0.3,0,0.5-0.2,0.8-0.1c0,0,0.1,0,0.1-0.1c0.1,0,0.1-0.1,0.2-0.1c0.2,0,0.3-0.1,0.5-0.2
	c0.1-0.1,0.2-0.2,0.3-0.3c0.1-0.2,0.2-0.4,0.2-0.6c0-0.1,0-0.2,0-0.3C61.5,21.9,61.5,21.7,61.4,21.5L61.4,21.5z M59.7,23.2
	c-0.4,0-0.7-0.2-0.9-0.6c-0.1-0.2-0.1-0.3,0-0.5c0.1-0.3,0.3-0.3,0.4-0.5c0.1-0.1,0.5,0,0.6,0c0.1,0,0.2,0.1,0.3,0.1
	c0.1,0,0.2,0,0.3,0.1c0.2,0.2,0.3,0.4,0.3,0.6c0,0.2-0.1,0.4-0.3,0.5c-0.1,0.1-0.2,0.2-0.4,0.2c0,0,0,0,0,0
	C59.9,23.2,59.8,23.2,59.7,23.2L59.7,23.2z M59.5,21.6c-0.2-0.1-0.3,0.1-0.5,0.2c-0.1,0.1-0.2,0.2-0.2,0.4c0,0.2,0,0.4,0.2,0.5
	c0.2,0.2,0.3,0.4,0.6,0.4c0.1,0,0.3,0,0.4-0.1c0.1-0.1,0.3-0.1,0.4-0.3c0.1-0.1,0.1-0.2,0.1-0.4c0-0.2-0.1-0.2-0.2-0.4
	c-0.1-0.1-0.1-0.1-0.2-0.1c-0.1,0-0.2,0-0.2,0C59.9,21.6,59.7,21.6,59.5,21.6L59.5,21.6z M58,22.4C58,22.4,58,22.4,58,22.4
	c0.1,0,0.1,0,0.1,0c0-0.1,0-0.2,0-0.2C58,22.2,58,22.3,58,22.4L58,22.4z M60,22.4c0-0.1-0.1-0.3-0.3-0.3c-0.1,0-0.2,0.2-0.2,0.3
	c0,0.1,0.1,0.2,0.2,0.2C59.8,22.6,59.9,22.5,60,22.4L60,22.4z M0.9,42.8C0.1,42.3,0,41.9,0,41.3c0-2.5,0.2-5.6,0.4-6.8
	c0.1-0.5,0.2-0.8,0.4-0.8s0.3,0.2,0.4,0.8c0.1,0.3,0.1,0.9,0.1,1.2c0.6,3.6,2.8,6.1,8,6.1c5.5,0,9.8-3.1,9.8-9.6
	c0-7.3-6.5-9.8-10.1-10.5c-1-0.2-1.4-0.3-1.4-0.7c0-0.4,0.5-0.5,1.2-0.7c2.7-0.5,8.6-3.1,8.6-9.4c0-2.3-1.4-7.3-7.8-7.3
	c-4,0-6.8,2.2-6.8,6.4c0,0.5-0.2,0.7-0.4,0.7S2.2,10.5,2.2,10C2,8.3,1.8,5.8,1.8,4.6c0-0.5,0.1-0.7,0.7-1.1c1.7-0.8,4.7-1.8,8.8-1.8
	c8.9,0,10.8,5.4,10.8,8.1c0,5.4-5.6,9-7.3,9.8v0.3c3.4,0.8,9,4.1,9,10.4c0,7.6-6.6,13.9-16.2,13.9C5.3,44.1,2,43.5,0.9,42.8
	L0.9,42.8z M95.1,28.4c-0.3,0-0.4,0.2-0.5,0.4l-2.4,6.8c-0.5,1.5-0.9,3-0.9,3.9c0,1,0.6,1.4,1.8,1.4h0.4c0.5,0,0.7,0.2,0.7,0.4
	c0,0.3-0.4,0.4-0.8,0.4c-1.2,0-3.7-0.2-4.3-0.2c-0.5,0-2.9,0.2-5.2,0.2c-0.6,0-0.9-0.1-0.9-0.4c0-0.2,0.2-0.4,0.7-0.4
	c0.3,0,0.8,0,1.1-0.1c2.3-0.2,3.3-2,4.2-4.3L99.7,8c0.6-1.6,0.8-1.8,1.1-1.8c0.3,0,0.5,0.2,1.1,1.7c0.8,1.8,8.1,20.7,11,27.5
	c1.8,4.3,3.4,5,4.1,5.3c0.7,0.3,1.5,0.3,1.8,0.3s0.7,0.1,0.7,0.4c0,0.3-0.2,0.4-0.8,0.4c-0.5,0-4.6,0-8.3-0.1
	c-1-0.1-1.4-0.1-1.4-0.4c0-0.2,0.2-0.3,0.4-0.4c0.2-0.1,0.5-0.4,0.2-1.2l-4.3-10.9c-0.1-0.2-0.2-0.3-0.4-0.3L95.1,28.4L95.1,28.4z
	 M104.4,26.5c0.2,0,0.2-0.2,0.2-0.3l-4.3-12c-0.3-0.8-0.3-0.8-0.6,0l-4.1,12c-0.1,0.2,0,0.3,0.1,0.3H104.4z M130.7,22.7
	c2.5-2.2,8.4-7.9,10.9-10.5c2.6-2.9,2.8-3.1,2.8-3.7c0-0.4-0.2-0.7-0.9-0.9c-0.4-0.1-0.6-0.2-0.6-0.4c0-0.2,0.1-0.3,0.5-0.3
	c0.3,0,2,0.2,3.7,0.2c1.6,0,4.6-0.2,5.3-0.2c0.8,0,0.9,0.1,0.9,0.3s-0.2,0.4-0.6,0.4c-0.9,0.1-2,0.3-2.7,0.5c-1.3,0.4-2,1-4.8,3.6
	c-4,3.6-8.7,8.2-11.1,10.4c2.9,3,11.7,11.7,14,13.8c3.8,3.5,5.7,4.4,7.8,4.9c0.6,0.1,0.3,0.1,1.2,0.2c0.5,0.1,0.8,0.2,0.8,0.4
	c0,0.2-0.3,0.3-0.9,0.3h-3.5c-4.2,0-5.3-0.5-7.5-2C143.7,37.9,135,29,130.7,24v4.3c0,4.2-0.1,8,0.2,9.9c0.2,1.6,0.4,2.2,1.8,2.5
	c0.7,0.2,1.8,0.2,2.1,0.2c0.5,0.1,0.6,0.2,0.6,0.4c0,0.2-0.2,0.4-0.8,0.4c-2.8,0-5.9-0.2-6.2-0.2c-0.2,0-3.4,0.2-4.9,0.2
	c-0.5,0-0.9-0.1-0.9-0.4c0-0.2,0.2-0.4,0.7-0.4c0.3,0,0.9-0.1,1.3-0.2c0.9-0.2,1.1-1.3,1.2-2.6c0.3-2,0.3-5.8,0.3-9.9v-8.1
	c0-7.2,0-8.5-0.1-9.9c-0.1-1.5-0.4-2.3-1.6-2.5c-0.5-0.1-0.9-0.1-1.2-0.2c-0.4-0.1-0.6-0.2-0.6-0.4c0-0.3,0.2-0.4,0.8-0.4
	c1.7,0,4.8,0.2,4.9,0.2c0.2,0,3.4-0.2,4.9-0.2c0.5,0,0.8,0.1,0.8,0.4c0,0.2-0.2,0.3-0.6,0.4c-0.3,0.1-0.6,0.1-1,0.1
	c-1.6,0.2-1.7,1-1.8,2.6c-0.1,1.5-0.1,2.7-0.1,9.9L130.7,22.7L130.7,22.7z"/>
</svg>
